<svg id="Ebene_1" data-name="Ebene 1" xmlns="http://www.w3.org/2000/svg" viewBox="0 0 1112.9 1032.93"><defs><style>.cls-1{fill:#fff;}.cls-1,.cls-2{stroke:#000;stroke-miterlimit:10;stroke-width:7px;}.cls-2{fill:none;}.cls-3{fill:#bac9e3;}</style></defs><path class="cls-1" d="M613.16,126.09l247-98.79s81,53.69,198.34,0l246.08,98.79L1512,292.53,1404.56,485.82l-118.12-42.95v609.92H633.94L631.41,445,517.59,483.67,408.06,292.53Z" transform="translate(-403.54 -23.37)"/><line class="cls-1" x1="230.26" y1="996.7" x2="882.9" y2="996.7"/><path class="cls-1" d="M433.53,271.86,551.12,472.28Z" transform="translate(-403.54 -23.37)"/><path class="cls-1" d="M1486.19,271.86l-114,200.42Z" transform="translate(-403.54 -23.37)"/><path class="cls-1" d="M613.16,126.09S675.44,285,631.41,445C631.41,445,677.59,330.11,613.16,126.09Z" transform="translate(-403.54 -23.37)"/><path class="cls-1" d="M1304.85,124.65s-62.28,158.92-18.26,318.92C1286.59,443.57,1240.42,328.67,1304.85,124.65Z" transform="translate(-403.54 -23.37)"/><path class="cls-1" d="M838.6,35c11.1,48,34.54,106.22,79.17,132.44a85.46,85.46,0,0,0,42.23,12" transform="translate(-403.54 -23.37)"/><path class="cls-1" d="M1081.2,36C1068.46,98.17,1032,175.48,960,179.47" transform="translate(-403.54 -23.37)"/><path class="cls-1" d="M859.47,28.29s24.7,124.33,99.87,125.12" transform="translate(-403.54 -23.37)"/><path class="cls-1" d="M1059.2,28.29s-24.7,124.33-99.86,125.12" transform="translate(-403.54 -23.37)"/><path class="cls-2" d="M865.07,48.32s71.27,52.33,189.39,0" transform="translate(-403.54 -23.37)"/><path class="cls-3" d="M927,379.91c0-9.7,5.78-15.84,16.12-15.84s16.19,6.14,16.19,15.84V403h-6V379.91c0-6.43-3.51-10.34-10.23-10.34s-10.16,3.91-10.16,10.34V403h-6Z" transform="translate(-403.54 -23.37)"/><path class="cls-3" d="M964.28,383.94c0-11.45,8.41-19.87,20.33-19.87s20.33,8.42,20.33,19.87-8.41,19.86-20.33,19.86S964.28,395.39,964.28,383.94Zm34.65,0c0-8.3-5.85-14.38-14.32-14.38s-14.31,6.08-14.31,14.38,5.84,14.37,14.31,14.37S998.93,392.23,998.93,383.94Z" transform="translate(-403.54 -23.37)"/><path class="cls-3" d="M931,432.42V433H920v-.53c3.16-.05,3.69-1.63,3.69-3.16v-14.2c0-7.89-5.68-8.42-7.89-8.42-2,0-7.89.53-7.89,8.42v14.2c0,1.58.52,3.16,3.68,3.16V433h-11v-.53c3.16,0,3.68-1.58,3.68-3.16V394c0-2.31-1.21-2.95-4.62-1l-.27-.53,8.05-4.73h.53v23.67c1.57-4.89,6.31-5.26,7.89-5.26,2.1,0,11.57.52,11.57,10.68v12.46C927.39,430.84,927.92,432.42,931,432.42Z" transform="translate(-403.54 -23.37)"/><path class="cls-3" d="M958.48,426.11c0,4.21-5.79,7.36-13.15,7.36s-13.15-6.42-13.15-13.67,5.89-13.68,13.15-13.68,8.57,3.47,10.52,4.73a2.92,2.92,0,0,0,3.42-.05l.79-.47.26.52-14.2,8.26c-.58.37-1.21.74-1.79,1.05a19.75,19.75,0,0,1,4.68-.52C954.8,419.64,958.48,422.43,958.48,426.11Zm-22.09-6.31a23.16,23.16,0,0,0,.68,5.94,4.29,4.29,0,0,1,1.1-2h0l.11-.11c1.73-1.84,4.78-3.31,7.2-4.73L948.8,417c2.26-1.42,2.84-2.26,2.84-4.52,0-3.68-3.68-5.79-6.31-5.79S936.39,407.7,936.39,419.8Zm18.41,6.31c0-3.16-1.58-5.95-5.79-5.95a13.44,13.44,0,0,0-7.52,1.74c-3,1.89-5,3.68-3.42,6.57a7.78,7.78,0,0,0,7.26,4.48C950.06,433,954.8,431.89,954.8,426.11Z" transform="translate(-403.54 -23.37)"/><path class="cls-3" d="M986.09,432.42V433h-7.36v-3.63c-1,2.52-3.21,4.15-7.37,4.15-4.73,0-9.46-2.1-9.46-7.89s5.26-8.42,12.09-8.42c4.21,0,5.79-2.63,5.79-5.26s-1-5.26-7.36-5.26-7.89,4.74-7.89,7.89H964v-8.41h.53c0,1.05.26,1.58,1.42,1.58.84,0,2.78-1.58,6.47-1.58,8.41,0,11.57,3.05,11.57,5.78,0,3.16-3.16,5.79-10,5.79-6.36,0-7.89,3.31-7.89,7.89s1.32,7.37,5.26,7.37c4.74,0,7.37-2.63,7.37-6.84,0-2.42-1.21-3.05-4.63-1.05l-.26-.53,8-4.73h.53v9.46C982.41,430.84,982.94,432.42,986.09,432.42Z" transform="translate(-403.54 -23.37)"/><path class="cls-3" d="M1014.39,411.38l-12,7.1-.26-.53.94-.52c1.32-.9,3.21-2.42,3.16-5,0-3.68-2-5.79-4.74-5.79-2.1,0-5.73.53-5.78,8.42v14.2c0,1.58.58,3.16,3.68,3.16V433h-11v-.53c3.21,0,3.74-1.58,3.69-3.16V412.43c0-2.37-1.27-3-4.63-1.05l-.27-.53,8.05-4.73h.53v4.58c1.21-4.32,4.15-4.58,5.78-4.58a10.46,10.46,0,0,1,7.89,3.94c1.48,1.63,2.32,2.16,4.42,1l.32-.21Z" transform="translate(-403.54 -23.37)"/><path class="cls-3" d="M1032,430.16a7,7,0,0,1-5.89,3.31c-7.26,0-8.36-6.89-8.42-11v-12.1c0-1.58-.52-3.16-3.68-3.16v-.53h6.68c-2.21-.63-2.94-1.89-3-4.73.06-2.42-1.26-3.05-4.62-1.05l-.27-.53,8.05-4.73h.53V399c.05,7.62,2.68,7.62,8.1,7.62h.31v.53h-4.73c-3,0-3.68,1.58-3.68,3.16v12.1c-.06,7.94,3.26,10,5.78,10a5.25,5.25,0,0,0,4.47-2.63Z" transform="translate(-403.54 -23.37)"/></svg>