<svg id="Ebene_1" data-name="Ebene 1" xmlns="http://www.w3.org/2000/svg" viewBox="0 0 1105.82 1027.09"><defs><style>.cls-1{fill:#f6efd2;}.cls-1,.cls-2{stroke:#000;stroke-miterlimit:10;stroke-width:1.5px;}.cls-2{fill:none;}.cls-3{fill:#8892ca;}</style></defs><path class="cls-1" d="M613.16,126.09l247-98.79s81,53.69,198.34,0l246.08,98.79L1512,292.53,1404.56,485.82l-118.12-42.95v609.92H633.94L631.41,445,517.59,483.67,408.06,292.53Z" transform="translate(-407.09 -26.46)"/><line class="cls-1" x1="226.71" y1="993.61" x2="879.35" y2="993.61"/><path class="cls-1" d="M433.53,271.86,551.12,472.28Z" transform="translate(-407.09 -26.46)"/><path class="cls-1" d="M1486.19,271.86l-114,200.42Z" transform="translate(-407.09 -26.46)"/><path class="cls-1" d="M613.16,126.09S675.44,285,631.41,445C631.41,445,677.59,330.11,613.16,126.09Z" transform="translate(-407.09 -26.46)"/><path class="cls-1" d="M1304.85,124.65s-62.28,158.92-18.26,318.92C1286.59,443.57,1240.42,328.67,1304.85,124.65Z" transform="translate(-407.09 -26.46)"/><path class="cls-1" d="M838.6,35c11.1,48,34.54,106.22,79.17,132.44a85.46,85.46,0,0,0,42.23,12" transform="translate(-407.09 -26.46)"/><path class="cls-1" d="M1081.2,36C1068.46,98.17,1032,175.48,960,179.47" transform="translate(-407.09 -26.46)"/><path class="cls-1" d="M859.47,28.29s24.7,124.33,99.87,125.12" transform="translate(-407.09 -26.46)"/><path class="cls-1" d="M1059.2,28.29s-24.7,124.33-99.86,125.12" transform="translate(-407.09 -26.46)"/><path class="cls-2" d="M860.14,27.3s82.09,53.62,198.34,0" transform="translate(-407.09 -26.46)"/><path class="cls-2" d="M865.07,48.32s71.27,52.33,189.39,0" transform="translate(-407.09 -26.46)"/><path class="cls-3" d="M925.94,379c0-9.7,5.78-15.83,16.12-15.83s16.19,6.13,16.19,15.83v23.13h-6V379c0-6.43-3.51-10.34-10.23-10.34S931.9,372.6,931.9,379v23.13h-6Z" transform="translate(-407.09 -26.46)"/><path class="cls-3" d="M963.27,383.06c0-11.45,8.41-19.86,20.33-19.86s20.33,8.41,20.33,19.86-8.41,19.86-20.33,19.86S963.27,394.51,963.27,383.06Zm34.64,0c0-8.3-5.84-14.37-14.31-14.37s-14.31,6.07-14.31,14.37,5.84,14.37,14.31,14.37S997.91,391.36,997.91,383.06Z" transform="translate(-407.09 -26.46)"/><path class="cls-3" d="M930,431.54v.53H919v-.53c3.16-.05,3.68-1.63,3.68-3.15V414.18c0-7.89-5.68-8.41-7.89-8.41-2,0-7.89.52-7.89,8.41v14.21c0,1.57.53,3.15,3.69,3.15v.53h-11v-.53c3.16,0,3.68-1.58,3.68-3.15V393.14c0-2.31-1.21-2.94-4.63-1.05l-.26-.52,8.05-4.74h.52V410.5c1.58-4.89,6.32-5.26,7.89-5.26,2.11,0,11.58.53,11.58,10.68v12.47C926.38,430,926.91,431.54,930,431.54Z" transform="translate(-407.09 -26.46)"/><path class="cls-3" d="M957.47,425.23c0,4.21-5.79,7.36-13.15,7.36s-13.15-6.41-13.15-13.67,5.89-13.68,13.15-13.68,8.57,3.47,10.52,4.74a2.92,2.92,0,0,0,3.42-.06l.78-.47.27.53-14.2,8.25c-.58.37-1.21.74-1.79,1.06a19.24,19.24,0,0,1,4.68-.53C953.78,418.76,957.47,421.55,957.47,425.23Zm-22.1-6.31a23.06,23.06,0,0,0,.69,5.94,4.24,4.24,0,0,1,1.1-2h0l.1-.1c1.74-1.84,4.79-3.32,7.21-4.74l3.37-1.94c2.26-1.42,2.84-2.26,2.84-4.53,0-3.68-3.68-5.78-6.31-5.78S935.37,406.82,935.37,418.92Zm18.41,6.31c0-3.16-1.57-5.94-5.78-5.94a13.45,13.45,0,0,0-7.52,1.73c-3.05,1.9-5,3.68-3.42,6.58a7.76,7.76,0,0,0,7.26,4.47C949.05,432.07,953.78,431,953.78,425.23Z" transform="translate(-407.09 -26.46)"/><path class="cls-3" d="M985.08,431.54v.53h-7.36v-3.63c-1,2.52-3.21,4.15-7.37,4.15-4.73,0-9.47-2.1-9.47-7.89s5.26-8.41,12.1-8.41c4.21,0,5.79-2.63,5.79-5.26s-1-5.26-7.37-5.26-7.89,4.73-7.89,7.89H963v-8.42h.52c0,1.05.27,1.58,1.42,1.58.85,0,2.79-1.58,6.47-1.58,8.42,0,11.58,3.05,11.58,5.79,0,3.15-3.16,5.78-10,5.78-6.36,0-7.89,3.32-7.89,7.89s1.32,7.37,5.26,7.37c4.74,0,7.37-2.63,7.37-6.84,0-2.42-1.21-3.05-4.63-1.05l-.27-.53,8-4.73h.53v9.47C981.4,430,981.92,431.54,985.08,431.54Z" transform="translate(-407.09 -26.46)"/><path class="cls-3" d="M1013.38,410.5l-12,7.1-.27-.52,1-.53c1.32-.89,3.21-2.42,3.16-5,0-3.68-2.05-5.78-4.74-5.78-2.1,0-5.73.52-5.78,8.41v14.21c0,1.57.58,3.15,3.68,3.15v.53h-11v-.53c3.21,0,3.74-1.58,3.68-3.15V411.55c0-2.36-1.26-3-4.62-1.05l-.27-.52,8-4.74h.53v4.58c1.21-4.31,4.15-4.58,5.78-4.58a10.43,10.43,0,0,1,7.89,3.95c1.48,1.63,2.32,2.15,4.42,1l.32-.21Z" transform="translate(-407.09 -26.46)"/><path class="cls-3" d="M1031,429.28a7,7,0,0,1-5.89,3.31c-7.26,0-8.37-6.89-8.42-11v-12.1c0-1.58-.52-3.16-3.68-3.16v-.52h6.68c-2.21-.63-3-1.9-3-4.74,0-2.42-1.26-3-4.63-1l-.26-.52,8.05-4.74h.52v3.42c.06,7.63,2.69,7.63,8.1,7.63h.32v.52h-4.73c-3,0-3.69,1.58-3.69,3.16v12.1c0,7.94,3.27,10,5.79,10a5.22,5.22,0,0,0,4.47-2.63Z" transform="translate(-407.09 -26.46)"/></svg>