<svg id="Ebene_1" data-name="Ebene 1" xmlns="http://www.w3.org/2000/svg" viewBox="0 0 1105.82 1027.09"><defs><style>.cls-1,.cls-2{stroke:#fff;stroke-miterlimit:10;stroke-width:1.5px;}.cls-2{fill:none;}.cls-3{fill:#bac9e3;}</style></defs><path class="cls-1" d="M613.16,126.09l247-98.79s81,53.69,198.34,0l246.08,98.79L1512,292.53,1404.56,485.82l-118.12-42.95v609.92H633.94L631.41,445,517.59,483.67,408.06,292.53Z" transform="translate(-407.09 -26.46)"/><path class="cls-1" d="M433.53,271.86,551.12,472.28Z" transform="translate(-407.09 -26.46)"/><path class="cls-1" d="M1486.19,271.86l-114,200.42Z" transform="translate(-407.09 -26.46)"/><path class="cls-1" d="M613.16,126.09S675.44,285,631.41,445C631.41,445,677.59,330.11,613.16,126.09Z" transform="translate(-407.09 -26.46)"/><path class="cls-1" d="M1304.85,124.65s-62.28,158.92-18.26,318.92C1286.59,443.57,1240.42,328.67,1304.85,124.65Z" transform="translate(-407.09 -26.46)"/><path class="cls-1" d="M838.6,35c11.1,48,34.54,106.22,79.17,132.44a85.46,85.46,0,0,0,42.23,12" transform="translate(-407.09 -26.46)"/><path class="cls-1" d="M1081.2,36C1068.46,98.17,1032,175.48,960,179.47" transform="translate(-407.09 -26.46)"/><path class="cls-1" d="M859.47,28.29s24.7,124.33,99.87,125.12" transform="translate(-407.09 -26.46)"/><path class="cls-1" d="M1059.2,28.29s-24.7,124.33-99.86,125.12" transform="translate(-407.09 -26.46)"/><path class="cls-2" d="M865.07,48.32s71.27,52.33,189.39,0" transform="translate(-407.09 -26.46)"/><line class="cls-1" x1="226.71" y1="993.61" x2="879.35" y2="993.61"/><path class="cls-3" d="M926.31,379.91c0-9.7,5.78-15.84,16.12-15.84s16.18,6.14,16.18,15.84V403h-6V379.91c0-6.43-3.5-10.34-10.22-10.34s-10.17,3.91-10.17,10.34V403h-6Z" transform="translate(-407.09 -26.46)"/><path class="cls-3" d="M963.64,383.94c0-11.45,8.41-19.87,20.33-19.87s20.33,8.42,20.33,19.87S995.89,403.8,984,403.8,963.64,395.39,963.64,383.94Zm34.64,0c0-8.3-5.84-14.38-14.31-14.38s-14.32,6.08-14.31,14.38,5.84,14.37,14.31,14.37S998.28,392.23,998.28,383.94Z" transform="translate(-407.09 -26.46)"/><path class="cls-3" d="M930.38,432.42V433h-11v-.53c3.16-.05,3.68-1.63,3.68-3.16v-14.2c0-7.89-5.68-8.42-7.89-8.42-2,0-7.89.53-7.89,8.42v14.2c0,1.58.53,3.16,3.68,3.16V433h-11v-.53c3.15,0,3.68-1.58,3.68-3.16V394c0-2.31-1.21-2.95-4.63-1l-.26-.53,8.05-4.73h.52v23.67c1.58-4.89,6.31-5.26,7.89-5.26,2.11,0,11.57.52,11.57,10.68v12.46C926.75,430.84,927.27,432.42,930.38,432.42Z" transform="translate(-407.09 -26.46)"/><path class="cls-3" d="M957.83,426.11c0,4.21-5.78,7.36-13.15,7.36s-13.15-6.42-13.15-13.67,5.89-13.68,13.15-13.68,8.58,3.47,10.52,4.73a2.92,2.92,0,0,0,3.42-.05l.79-.47.26.52-14.2,8.26c-.58.37-1.21.74-1.79,1.05a19.89,19.89,0,0,1,4.69-.52C954.15,419.64,957.83,422.43,957.83,426.11Zm-22.09-6.31a22.68,22.68,0,0,0,.69,5.94,4.12,4.12,0,0,1,1.1-2h0l.1-.11c1.74-1.84,4.79-3.31,7.21-4.73l3.37-1.95c2.26-1.42,2.84-2.26,2.84-4.52,0-3.68-3.69-5.79-6.32-5.79S935.74,407.7,935.74,419.8Zm18.41,6.31c0-3.16-1.58-5.95-5.78-5.95a13.48,13.48,0,0,0-7.53,1.74c-3.05,1.89-4.94,3.68-3.42,6.57a7.79,7.79,0,0,0,7.26,4.48C949.42,433,954.15,431.89,954.15,426.11Z" transform="translate(-407.09 -26.46)"/><path class="cls-3" d="M985.45,432.42V433h-7.37v-3.63c-.94,2.52-3.2,4.15-7.36,4.15-4.73,0-9.47-2.1-9.47-7.89s5.26-8.42,12.1-8.42c4.21,0,5.79-2.63,5.79-5.26s-1.06-5.26-7.37-5.26-7.89,4.74-7.89,7.89h-.52v-8.41h.52c0,1.05.27,1.58,1.42,1.58.84,0,2.79-1.58,6.47-1.58,8.42,0,11.57,3.05,11.57,5.78,0,3.16-3.15,5.79-10,5.79-6.36,0-7.89,3.31-7.89,7.89s1.32,7.37,5.26,7.37c4.73,0,7.36-2.63,7.36-6.84,0-2.42-1.21-3.05-4.62-1.05l-.27-.53,8-4.73h.53v9.46C981.77,430.84,982.29,432.42,985.45,432.42Z" transform="translate(-407.09 -26.46)"/><path class="cls-3" d="M1013.75,411.38l-12,7.1-.26-.53,1-.52c1.31-.9,3.21-2.42,3.15-5,.06-3.68-2.05-5.79-4.73-5.79-2.1,0-5.73.53-5.79,8.42v14.2c.06,1.58.58,3.16,3.69,3.16V433h-11v-.53c3.21,0,3.73-1.58,3.68-3.16V412.43c0-2.37-1.26-3-4.63-1.05l-.26-.53,8-4.73h.52v4.58c1.21-4.32,4.16-4.58,5.79-4.58a10.49,10.49,0,0,1,7.89,3.94c1.47,1.63,2.31,2.16,4.42,1l.31-.21Z" transform="translate(-407.09 -26.46)"/><path class="cls-3" d="M1031.37,430.16a7,7,0,0,1-5.89,3.31c-7.26,0-8.37-6.89-8.42-11v-12.1c0-1.58-.53-3.16-3.68-3.16v-.53h6.68c-2.21-.63-2.95-1.89-3-4.73.05-2.42-1.26-3.05-4.63-1.05l-.26-.53,8.05-4.73h.52V399c0,7.62,2.68,7.62,8.1,7.62h.32v.53h-4.74c-3.05,0-3.68,1.58-3.68,3.16v12.1c0,7.94,3.26,10,5.79,10a5.25,5.25,0,0,0,4.47-2.63Z" transform="translate(-407.09 -26.46)"/></svg>