<svg id="Ebene_1" data-name="Ebene 1" xmlns="http://www.w3.org/2000/svg" viewBox="0 0 51.77 46.3"><defs><style>.cls-1,.cls-2{fill:#16019a;}.cls-2{stroke:#16019a;stroke-linecap:round;stroke-miterlimit:10;stroke-width:6px;}</style></defs><path class="cls-1" d="M985.88,531a14.14,14.14,0,0,1-4,10.21,2.09,2.09,0,0,1-.2.22l-.18.19L960,563.15l-21.39-21.39-.46-.46A14.44,14.44,0,1,1,960,522.48a15.53,15.53,0,0,1,1.44-1.6,14.29,14.29,0,0,1,10.59-4A14.63,14.63,0,0,1,985.88,531Z" transform="translate(-934.12 -516.85)"/><path class="cls-2" d="M960,531.29" transform="translate(-934.12 -516.85)"/><path class="cls-2" d="M971.44,542.73" transform="translate(-934.12 -516.85)"/></svg>