<svg id="Ebene_1" data-name="Ebene 1" xmlns="http://www.w3.org/2000/svg" viewBox="0 0 956.65 540.74"><defs><style>.cls-1{fill:#16019a;}.cls-2{fill:#bac9e3;stroke:#16019a;stroke-miterlimit:10;stroke-width:2px;}</style></defs><path class="cls-1" d="M463.36,405.69c0-52.81,37.48-89.95,91-89.95,52.8,0,89.6,36.12,89.6,89.95v82.79H614.29v-36.8c-11.24,27.26-36.12,41.23-65.42,41.23C504.92,492.91,463.36,461.22,463.36,405.69Zm148.54-1.37c0-34.07-23.16-58.6-57.91-58.6s-57.92,24.53-57.92,58.6,23.16,58.6,57.92,58.6S611.9,438.39,611.9,404.32Z" transform="translate(-463.36 -246.58)"/><path class="cls-1" d="M677.31,403V246.58h32.36V349.81c12.27-21.8,35.44-34.07,62.69-34.07,43.95,0,85.52,31.69,85.52,87.56,0,52.81-37.48,89.61-91,89.61C714.79,492.91,677.31,457.81,677.31,403Zm147.86,1.36c0-34.07-23.17-58.6-57.92-58.6-34.41,0-57.58,24.53-57.58,58.6s23.17,58.6,57.58,58.6C802,462.92,825.17,438.39,825.17,404.32Z" transform="translate(-463.36 -246.58)"/><path class="cls-1" d="M877.63,404.32c0-51.1,37.48-88.58,90.63-88.58s90.62,37.48,90.62,88.58-37.47,88.59-90.62,88.59S877.63,455.43,877.63,404.32Zm148.55,0c0-34.07-23.17-58.6-57.92-58.6s-57.92,24.53-57.92,58.6,23.17,58.6,57.92,58.6S1026.18,438.39,1026.18,404.32Z" transform="translate(-463.36 -246.58)"/><path class="cls-1" d="M1085.45,408.07v-87.9h32.37v87.9c0,36.46,20.1,54.85,50.76,54.85s50.77-18.39,50.77-54.85v-87.9h32.36v87.9c0,55.88-33.39,84.84-83.13,84.84S1085.45,464.29,1085.45,408.07Z" transform="translate(-463.36 -246.58)"/><path class="cls-1" d="M1285.1,424.77V260.55h32.36v59.62h92.67v29.64h-92.67v75c0,26.57,14,38.15,35.09,38.15S1388,451.68,1388,424.77V421h32v3.75c0,45.65-27.25,68.14-67.46,68.14S1285.1,470.42,1285.1,424.77Z" transform="translate(-463.36 -246.58)"/><path class="cls-2" d="M940.36,775.41v5.46H864V733.39c-15.28,49.11-59.48,52.93-76.39,52.93-76.94,0-125.51-65.48-125.51-141.87,0-62.75,40.38-114.59,97.68-131H673V508h125.5v5.46c-27.28,0-92.76,5.46-92.76,131s54,136.42,81.85,136.42c21.83,0,76.39-5.46,76.39-87.31V568.06c0-24.56-13.09-31.11-48-10.92l-2.72-5.46,83.48-49.1h5.46V742.67C902.16,758.49,907.62,774.87,940.36,775.41Z" transform="translate(-463.36 -246.58)"/><path class="cls-2" d="M1049.48,786.32c-39.29,0-51.84-16.37-67.12-16.37-12,0-14.73,5.46-14.73,16.37h-5.46V699h5.46c0,48,26.19,81.85,81.85,81.85,32.74,0,79.12-18,79.12-54.57,0-74.21-166.43-78.58-166.43-152.79,0-46.38,58.94-70.93,98.22-70.93S1112.23,519,1127.51,519c12,0,14.73-5.46,14.73-16.37h5.46v87.3h-5.46c0-48.56-26.73-81.85-81.85-81.85-44.74,0-69.3,27.28-69.3,49.11.55,53.48,167.52,51.3,167.52,152.79C1158.61,779.23,1071.85,786.32,1049.48,786.32Z" transform="translate(-463.36 -246.58)"/></svg>