<svg id="Ebene_1" data-name="Ebene 1" xmlns="http://www.w3.org/2000/svg" viewBox="0 0 860.42 1027.5"><defs><style>.cls-1{stroke:#fff;stroke-miterlimit:10;stroke-width:2px;}</style></defs><path class="cls-1" d="M754.76,195.9s-41,21.42-60.06,39.94S629,299.61,603.94,384.07c0,0-13.12,33.94-22,115.33s-13.88,123-13.88,123S563.44,664.48,555,796l-2.7,173.18,152.35,2.7v11.19h552.71V971.88L1410.43,968l-3.08-185.9s-4.24-94.89-10.8-145.8-8.1-74.44-8.1-74.44-20.83-176.91-37-204.68c0,0-29.7-80.35-95.65-132.81,0,0-18.51-15.81-48.09-28.92" transform="translate(-551.03 -26.25)"/><polyline class="cls-1" points="153.57 945.63 146.79 972.68 133.52 1025.66 17.61 1025.66 1.22 942.93 153.57 945.63"/><polygon class="cls-1" points="706.28 956.81 702.42 1026.5 158.33 1025.66 155.76 956.81 706.28 956.81"/><path class="cls-1" d="M970.35,256s57.19,5.21,136-19.93c88.72-28.28,92.83-27.77,101.31-40.62,0,0,5.66-5.15,6.43-23.66,0,0-2.31-26.48-18-74.83s-42.94-50.39-72.76-62.22c0,0-11.29-5.92-141.42-7.46,0,0-114.95-1.28-149.15,9.26s-47.31,27.25-47.31,27.25-9.51,7.72-20.05,44c0,0-16.46,48.09-16.2,67.12s7.26,22.49,7.26,22.49,28.16,21.6,108.57,39.73c0,0,37,10.42,65,16.2,0,0,27.57,5.33,39,3.15" transform="translate(-551.03 -26.25)"/><path class="cls-1" d="M1170.53,59.31c-.39,39.73-42,82.93-69.81,96.81S970.35,256,970.35,256" transform="translate(-551.03 -26.25)"/><path class="cls-1" d="M981.93,246.39s-92.58-77.54-134.62-101.84S791,63.17,791.77,59.31" transform="translate(-551.03 -26.25)"/><path class="cls-1" d="M1237.44,212.34s-16.38,104.76-7.51,173.52,25.45,89.23,25.45,89.23l1.93,1.55V979.21" transform="translate(-551.03 -26.25)"/><path class="cls-1" d="M724.48,213.52s16.38,104.6,7.51,173.25-25.46,89.1-25.46,89.1l-1.93,1.54v501.8" transform="translate(-551.03 -26.25)"/><polyline class="cls-1" points="706.28 945.63 858.63 942.93 842.24 1025.66 726.34 1025.66 706.28 945.63"/></svg>