<svg id="Ebene_1" data-name="Ebene 1" xmlns="http://www.w3.org/2000/svg" viewBox="0 0 860.42 1027.5"><defs><style>.cls-1{fill:#fff;stroke:#000;stroke-miterlimit:10;stroke-width:2px;}</style></defs><path class="cls-1" d="M733.7,196.24s-41,21.42-60.05,39.93S608,299.94,582.88,384.41c0,0-13.12,33.94-22,115.33s-13.88,123-13.88,123-4.63,42.05-13.12,173.57l-2.7,173.18,152.35,2.7V983.4h552.71V972.22l153.13-3.86-3.09-185.91s-4.24-94.88-10.8-145.79-8.1-74.44-8.1-74.44-20.83-176.91-37-204.68c0,0-29.7-80.35-95.65-132.81,0,0-18.51-15.81-48.08-28.93" transform="translate(-529.97 -26.59)"/><polyline class="cls-1" points="153.57 945.63 146.79 972.68 133.52 1025.66 17.61 1025.66 1.22 942.93 153.57 945.63"/><polygon class="cls-1" points="706.28 956.81 702.42 1026.5 158.33 1025.66 155.76 956.81 706.28 956.81"/><path class="cls-1" d="M949.29,256.36s57.19,5.21,136-19.93c88.71-28.28,92.82-27.77,101.31-40.63,0,0,5.65-5.14,6.42-23.65,0,0-2.31-26.49-18-74.83s-43-50.4-72.77-62.22c0,0-11.29-5.92-141.41-7.46,0,0-115-1.29-149.15,9.26s-47.32,27.25-47.32,27.25-9.51,7.72-20,44c0,0-16.46,48.09-16.2,67.11s7.26,22.5,7.26,22.5,28.16,21.6,108.58,39.73c0,0,37,10.41,65,16.2,0,0,27.57,5.33,39,3.15" transform="translate(-529.97 -26.59)"/><path class="cls-1" d="M1149.47,59.65c-.39,39.73-42,82.93-69.81,96.81s-130.37,99.9-130.37,99.9" transform="translate(-529.97 -26.59)"/><path class="cls-1" d="M960.88,246.73S868.3,169.19,826.25,144.89s-56.31-81.38-55.54-85.24" transform="translate(-529.97 -26.59)"/><path class="cls-1" d="M1216.38,212.68S1200,317.43,1208.87,386.2s25.45,89.23,25.45,89.23l1.93,1.55V979.55" transform="translate(-529.97 -26.59)"/><path class="cls-1" d="M703.42,213.86s16.38,104.6,7.51,173.25-25.46,89.1-25.46,89.1l-1.93,1.54v501.8" transform="translate(-529.97 -26.59)"/><polyline class="cls-1" points="706.28 945.63 858.63 942.93 842.24 1025.66 726.34 1025.66 706.28 945.63"/></svg>