<svg id="Ebene_1" data-name="Ebene 1" xmlns="http://www.w3.org/2000/svg" viewBox="0 0 860.15 1026.5"><defs><style>.cls-1{stroke:#fff;stroke-miterlimit:10;stroke-width:2px;}</style></defs><path class="cls-1" d="M748.5,204.4s-41,21.41-60,39.92-65.68,63.74-90.74,148.19c0,0-13.11,33.93-22,115.28s-13.88,123-13.88,123-4.63,42-13.11,173.51l-2.7,173.13,152.3,2.7v11.18h552.53V980.13L1404,976.27l-3.09-185.85s-4.24-94.85-10.79-145.75-8.1-74.41-8.1-74.41-20.82-176.85-37-204.62c0,0-29.69-80.32-95.63-132.76,0,0-18.51-15.81-48.07-28.92" transform="translate(-544.84 -35.46)"/><path class="cls-1" d="M718.23,222s16.38,104.56,7.51,173.19-25.45,89.07-25.45,89.07l-1.93,1.55V987.45" transform="translate(-544.84 -35.46)"/><path class="cls-1" d="M1231,220.83s-16.38,104.72-7.51,173.46S1249,483.5,1249,483.5l1.92,1.54V987.45" transform="translate(-544.84 -35.46)"/><polygon class="cls-1" points="153.53 944.66 133.47 1024.67 17.61 1024.67 1.22 941.96 153.53 944.66"/><polygon class="cls-1" points="706.06 955.84 702.2 1025.5 158.28 1024.67 155.71 955.84 706.06 955.84"/><polygon class="cls-1" points="858.36 941.96 841.97 1024.67 726.11 1024.67 706.06 944.66 858.36 941.96"/><path class="cls-1" d="M974.24,349l10.39-1.81a15.53,15.53,0,0,0,5.42-2c16.39-9.91,108.33-65.36,136-78.68,30.46-14.66,53.45-34.28,77.82-58.4l-.7-3.1s11-10.8,15.52-20.73c0,0,8.19-47.33-6.07-102.47,0,0,3.66-16-98.52-31.23S1021.22,36.72,1005,36.46H972.25" transform="translate(-544.84 -35.46)"/><path class="cls-1" d="M975,349l-13.31-2.47a30.06,30.06,0,0,1-10.06-3.82c-20.85-12.56-105.57-63.41-132.21-76.22C789,251.87,766,232.25,741.62,208.13l.69-3.1s-11-10.8-15.51-20.73c0,0-8.2-47.33,6.07-102.47,0,0-3.66-16,98.51-31.23S924.31,36.72,940.5,36.46h32.78Z" transform="translate(-544.84 -35.46)"/></svg>