<svg id="Ebene_1" data-name="Ebene 1" xmlns="http://www.w3.org/2000/svg" viewBox="0 0 860.15 1026.5"><defs><style>.cls-1{fill:#f6efd2;stroke:#000;stroke-miterlimit:10;stroke-width:2px;}</style></defs><path class="cls-1" d="M733.77,196s-41,21.41-60,39.92S608.06,299.61,583,384.06c0,0-13.11,33.93-22,115.28s-13.88,123-13.88,123-4.63,42-13.11,173.51L531.33,969l152.3,2.7v11.18h552.54V971.68l153.07-3.86L1386.15,782s-4.24-94.85-10.79-145.75-8.1-74.41-8.1-74.41-20.82-176.85-37-204.62c0,0-29.69-80.32-95.63-132.76,0,0-18.5-15.81-48.07-28.92" transform="translate(-530.11 -27.01)"/><path class="cls-1" d="M703.5,213.56S719.88,318.12,711,386.75s-25.45,89.07-25.45,89.07l-1.93,1.55V979" transform="translate(-530.11 -27.01)"/><path class="cls-1" d="M1216.3,212.38s-16.38,104.72-7.51,173.46,25.45,89.21,25.45,89.21l1.93,1.54V979" transform="translate(-530.11 -27.01)"/><polygon class="cls-1" points="153.53 944.66 133.47 1024.67 17.61 1024.67 1.22 941.96 153.53 944.66"/><polygon class="cls-1" points="706.06 955.84 702.2 1025.5 158.28 1024.67 155.71 955.84 706.06 955.84"/><polygon class="cls-1" points="858.36 941.96 841.97 1024.67 726.11 1024.67 706.06 944.66 858.36 941.96"/><path class="cls-1" d="M959.51,340.59l10.39-1.81a15.53,15.53,0,0,0,5.42-2c16.39-9.91,108.33-65.36,136-78.68,30.46-14.66,53.45-34.28,77.82-58.4l-.7-3.1s11-10.8,15.52-20.73c0,0,8.19-47.33-6.07-102.47,0,0,3.66-16-98.52-31.23S1006.49,28.27,990.29,28H957.52" transform="translate(-530.11 -27.01)"/><path class="cls-1" d="M960.28,340.59,947,338.12a30.06,30.06,0,0,1-10.06-3.82c-20.85-12.57-105.57-63.41-132.21-76.22-30.46-14.66-53.45-34.28-77.81-58.4l.7-3.1s-11-10.8-15.52-20.73c0,0-8.2-47.33,6.07-102.47,0,0-3.66-16,98.51-31.23S909.58,28.27,925.77,28h32.78Z" transform="translate(-530.11 -27.01)"/></svg>