<svg id="Ebene_1" data-name="Ebene 1" xmlns="http://www.w3.org/2000/svg" viewBox="0 0 1105.82 1027.09"><defs><style>.cls-1{fill:#fff;}.cls-1,.cls-2{stroke:#000;stroke-width:1.5px;}.cls-1,.cls-2,.cls-4{stroke-miterlimit:10;}.cls-2{fill:none;}.cls-3{font-size:101.3px;font-family:AllRoundGothic-Medium, All Round Gothic;font-weight:500;}.cls-3,.cls-4{fill:#bac9e3;}.cls-4{font-size:91.2px;stroke:#bac9e3;stroke-width:0.75px;font-family:Printemps-Regular, Printemps;}.cls-5{letter-spacing:-0.02em;}</style></defs><path class="cls-1" d="M613.34,126.31l247-98.79s81,53.69,198.34,0l246.08,98.79,207.39,166.44L1404.75,486l-118.12-43V1053H634.12L631.6,445.23,517.77,483.89,408.24,292.75Z" transform="translate(-407.27 -26.68)"/><path class="cls-1" d="M433.71,272.08,551.3,472.5Z" transform="translate(-407.27 -26.68)"/><path class="cls-1" d="M1486.37,272.08l-114,200.42Z" transform="translate(-407.27 -26.68)"/><path class="cls-1" d="M613.34,126.31s62.28,158.93,18.26,318.92C631.6,445.23,677.77,330.34,613.34,126.31Z" transform="translate(-407.27 -26.68)"/><path class="cls-1" d="M1305,124.87s-62.28,158.92-18.26,318.92C1286.77,443.79,1240.6,328.89,1305,124.87Z" transform="translate(-407.27 -26.68)"/><line class="cls-1" x1="226.71" y1="993.61" x2="879.35" y2="993.61"/><path class="cls-1" d="M838.78,35.25c11.1,48,34.54,106.22,79.17,132.44a85.58,85.58,0,0,0,42.23,12" transform="translate(-407.27 -26.68)"/><path class="cls-1" d="M1081.38,36.18c-12.74,62.21-49.25,139.53-121.2,143.52" transform="translate(-407.27 -26.68)"/><path class="cls-1" d="M859.65,28.51s24.7,124.33,99.87,125.12" transform="translate(-407.27 -26.68)"/><path class="cls-1" d="M1059.38,28.51s-24.69,124.33-99.86,125.12" transform="translate(-407.27 -26.68)"/><path class="cls-2" d="M865.25,48.54s71.28,52.33,189.4,0" transform="translate(-407.27 -26.68)"/><path class="cls-2" d="M860.32,27.52s82.09,53.62,198.34,0" transform="translate(-407.27 -26.68)"/><text class="cls-3" transform="translate(625.3 403.96)">NO</text><text class="cls-4" transform="translate(581.72 455.81)"><tspan class="cls-5">h</tspan><tspan x="54.72" y="0">eart</tspan></text></svg>