<svg id="Ebene_1" data-name="Ebene 1" xmlns="http://www.w3.org/2000/svg" viewBox="0 0 1105.82 1027.09"><defs><style>.cls-1{fill:#fff;}.cls-1,.cls-2{stroke:#000;stroke-width:1.5px;}.cls-1,.cls-2,.cls-4{stroke-miterlimit:10;}.cls-2{fill:none;}.cls-3,.cls-4{fill:#bac9e3;}.cls-4{stroke:#bac9e3;stroke-width:0.75px;}</style></defs><path class="cls-1" d="M613.34,126.31l247-98.79s81,53.69,198.34,0l246.08,98.79,207.39,166.44L1404.75,486l-118.12-43V1053H634.12L631.6,445.23,517.77,483.89,408.24,292.75Z" transform="translate(-407.27 -26.68)"/><path class="cls-2" d="M860.32,27.52s82.09,53.62,198.34,0" transform="translate(-407.27 -26.68)"/><line class="cls-1" x1="226.71" y1="993.61" x2="879.35" y2="993.61"/><path class="cls-1" d="M433.71,272.08,551.3,472.5Z" transform="translate(-407.27 -26.68)"/><path class="cls-1" d="M1486.37,272.08l-114,200.42Z" transform="translate(-407.27 -26.68)"/><path class="cls-1" d="M613.34,126.31s62.28,158.93,18.26,318.92C631.6,445.23,677.77,330.34,613.34,126.31Z" transform="translate(-407.27 -26.68)"/><path class="cls-1" d="M1305,124.87s-62.28,158.92-18.26,318.92C1286.77,443.79,1240.6,328.89,1305,124.87Z" transform="translate(-407.27 -26.68)"/><path class="cls-1" d="M838.78,35.25c11.1,48,34.54,106.22,79.17,132.44a85.58,85.58,0,0,0,42.23,12" transform="translate(-407.27 -26.68)"/><path class="cls-1" d="M1081.38,36.18c-12.74,62.21-49.25,139.53-121.2,143.52" transform="translate(-407.27 -26.68)"/><path class="cls-1" d="M859.65,28.51s24.7,124.33,99.87,125.12" transform="translate(-407.27 -26.68)"/><path class="cls-1" d="M1059.38,28.51s-24.69,124.33-99.86,125.12" transform="translate(-407.27 -26.68)"/><path class="cls-3" d="M1037.85,390.52c0-16.82,10-27.46,28-27.46s28.06,10.64,28.06,27.46v40.11h-10.34V390.52c0-11.15-6.07-17.93-17.72-17.93s-17.63,6.78-17.63,17.93v40.11h-10.33Z" transform="translate(-407.27 -26.68)"/><path class="cls-3" d="M1102.58,397.51c0-19.86,14.58-34.45,35.25-34.45s35.25,14.59,35.25,34.45S1158.49,432,1137.83,432,1102.58,417.36,1102.58,397.51Zm60.07,0c0-14.39-10.13-24.92-24.82-24.92S1113,383.12,1113,397.51s10.13,24.92,24.82,24.92S1162.65,411.89,1162.65,397.51Z" transform="translate(-407.27 -26.68)"/><path class="cls-4" d="M1044.9,481.57v.91h-19.15v-.91c5.47-.09,6.38-2.83,6.38-5.47V451.47c0-13.68-9.85-14.59-13.68-14.59-3.46,0-13.68.91-13.68,14.59V476.1c0,2.73.91,5.47,6.39,5.47v.91H992v-.91c5.48,0,6.39-2.74,6.39-5.47V415c0-4-2.1-5.11-8-1.82l-.45-.91,14-8.21h.91v41c2.74-8.48,11-9.12,13.68-9.12,3.65,0,20.07.91,20.07,18.51V476.1C1038.61,478.83,1039.52,481.57,1044.9,481.57Z" transform="translate(-407.27 -26.68)"/><path class="cls-4" d="M1092.51,470.62c0,7.3-10,12.77-22.8,12.77-12.59,0-22.8-11.12-22.8-23.71s10.21-23.71,22.8-23.71,14.86,6,18.24,8.21c2.28,1.46,3.92,1,5.93-.09l1.37-.83.45.92-24.62,14.32c-1,.63-2.1,1.27-3.1,1.82a33.44,33.44,0,0,1,8.11-.91C1086.12,459.41,1092.51,464.24,1092.51,470.62Zm-38.31-10.94a40,40,0,0,0,1.19,10.31,7.33,7.33,0,0,1,1.91-3.47h-.09l.19-.18c3-3.19,8.3-5.75,12.49-8.21l5.84-3.37c3.92-2.47,4.92-3.93,4.92-7.85,0-6.38-6.38-10-10.94-10S1054.2,438.7,1054.2,459.68Zm31.92,10.94c0-5.47-2.73-10.3-10-10.3-5.93-.09-9.85,1.09-13,3-5.29,3.28-8.57,6.38-5.93,11.4a13.48,13.48,0,0,0,12.59,7.75C1077.92,482.48,1086.12,480.66,1086.12,470.62Z" transform="translate(-407.27 -26.68)"/><path class="cls-4" d="M1140.39,481.57v.91h-12.77v-6.29c-1.64,4.38-5.56,7.2-12.77,7.2-8.21,0-16.41-3.64-16.41-13.68s9.12-14.59,21-14.59c7.3,0,10-4.56,10-9.12s-1.83-9.12-12.77-9.12S1103,445.09,1103,450.56h-.92V436h.92c0,1.82.45,2.73,2.46,2.73,1.46,0,4.83-2.73,11.22-2.73,14.59,0,20.06,5.29,20.06,10,0,5.47-5.47,10-17.33,10-11,0-13.68,5.75-13.68,13.68s2.28,12.77,9.12,12.77c8.21,0,12.77-4.56,12.77-11.86,0-4.19-2.1-5.28-8-1.82l-.45-.91,13.95-8.21h.91V476.1C1134,478.83,1134.92,481.57,1140.39,481.57Z" transform="translate(-407.27 -26.68)"/><path class="cls-4" d="M1189.46,445.09l-20.8,12.31-.45-.91,1.64-.91c2.28-1.55,5.56-4.2,5.47-8.67.09-6.38-3.56-10-8.21-10-3.65,0-9.94.91-10,14.59V476.1c.09,2.73,1,5.47,6.38,5.47v.91h-19.15v-.91c5.56,0,6.48-2.74,6.38-5.47V446.91c0-4.1-2.18-5.2-8-1.82l-.46-.91,14-8.21h.91v7.93c2.1-7.48,7.2-7.93,10-7.93,6.48,0,11.31,3.92,13.68,6.84,2.55,2.83,4,3.74,7.66,1.73l.55-.36Z" transform="translate(-407.27 -26.68)"/><path class="cls-4" d="M1220,477.65a12.16,12.16,0,0,1-10.22,5.74c-12.58,0-14.5-11.94-14.59-19.15v-21c0-2.73-.91-5.47-6.38-5.47v-.91h11.58c-3.83-1.09-5.11-3.28-5.2-8.21.09-4.19-2.19-5.29-8-1.82l-.45-.91,14-8.21h.91v5.93c.09,13.22,4.66,13.22,14.05,13.22h.55v.91H1208c-5.29,0-6.39,2.74-6.39,5.47v21c-.09,13.77,5.66,17.33,10,17.33,2.46,0,5.19-.91,7.75-4.56Z" transform="translate(-407.27 -26.68)"/><path class="cls-2" d="M865.25,48.54s71.28,52.33,189.4,0" transform="translate(-407.27 -26.68)"/></svg>