<svg id="Ebene_1" data-name="Ebene 1" xmlns="http://www.w3.org/2000/svg" viewBox="0 0 1105.82 1027.09"><defs><style>.cls-1,.cls-2{stroke:#fff;stroke-miterlimit:10;stroke-width:1.5px;}.cls-2{fill:none;}</style></defs><path class="cls-1" d="M636.83,128.21l247-98.79s81,53.69,198.34,0l246.08,98.79,207.39,166.44L1428.24,487.94,1310.12,445v609.93H657.62l-2.53-607.78L541.26,485.79,431.73,294.65Z" transform="translate(-430.76 -28.58)"/><path class="cls-1" d="M457.2,274,574.79,474.41Z" transform="translate(-430.76 -28.58)"/><path class="cls-1" d="M1509.86,274l-114,200.43Z" transform="translate(-430.76 -28.58)"/><path class="cls-1" d="M636.83,128.21s62.28,158.93,18.26,318.93C655.09,447.14,701.26,332.24,636.83,128.21Z" transform="translate(-430.76 -28.58)"/><path class="cls-1" d="M1328.52,126.77s-62.28,158.93-18.26,318.92C1310.26,445.69,1264.09,330.8,1328.52,126.77Z" transform="translate(-430.76 -28.58)"/><line class="cls-1" x1="226.71" y1="993.61" x2="879.35" y2="993.61"/><path class="cls-1" d="M862.27,37.15c11.1,48,34.54,106.22,79.17,132.44a85.47,85.47,0,0,0,42.23,12" transform="translate(-430.76 -28.58)"/><path class="cls-1" d="M1104.87,38.08c-12.74,62.21-49.25,139.53-121.2,143.52" transform="translate(-430.76 -28.58)"/><path class="cls-1" d="M883.14,30.41S907.84,154.74,983,155.53" transform="translate(-430.76 -28.58)"/><path class="cls-1" d="M1082.87,30.41S1058.18,154.74,983,155.53" transform="translate(-430.76 -28.58)"/><path class="cls-2" d="M888.74,50.44s71.28,52.33,189.4,0" transform="translate(-430.76 -28.58)"/><path class="cls-2" d="M883.81,29.42s82.09,53.62,198.34,0" transform="translate(-430.76 -28.58)"/></svg>