<svg id="Ebene_1" data-name="Ebene 1" xmlns="http://www.w3.org/2000/svg" viewBox="0 0 1105.82 1027.09"><defs><style>.cls-1{fill:#f6efd2;}.cls-1,.cls-2{stroke:#000;stroke-miterlimit:10;stroke-width:1.5px;}.cls-2{fill:none;}</style></defs><path class="cls-1" d="M600.69,126l247-98.79s81,53.69,198.35,0L1292.09,126l207.39,166.44L1392.1,485.77,1274,442.82v609.93H621.48L619,445,505.12,483.62,395.59,292.48Z" transform="translate(-394.63 -26.41)"/><line class="cls-1" x1="226.71" y1="993.61" x2="879.35" y2="993.61"/><path class="cls-1" d="M421.06,271.82,538.65,472.24Z" transform="translate(-394.63 -26.41)"/><path class="cls-1" d="M1473.73,271.82l-114,200.42Z" transform="translate(-394.63 -26.41)"/><path class="cls-1" d="M600.69,126S663,285,619,445C619,445,665.12,330.07,600.69,126Z" transform="translate(-394.63 -26.41)"/><path class="cls-1" d="M1292.38,124.6s-62.28,158.93-18.25,318.93C1274.13,443.53,1228,328.63,1292.38,124.6Z" transform="translate(-394.63 -26.41)"/><path class="cls-1" d="M826.14,35c11.09,48,34.54,106.23,79.16,132.44a85.41,85.41,0,0,0,42.24,12" transform="translate(-394.63 -26.41)"/><path class="cls-1" d="M1068.73,35.91C1056,98.12,1019.48,175.44,947.54,179.43" transform="translate(-394.63 -26.41)"/><path class="cls-1" d="M847,28.24s24.69,124.33,99.86,125.12" transform="translate(-394.63 -26.41)"/><path class="cls-1" d="M1046.74,28.24S1022,152.57,946.87,153.36" transform="translate(-394.63 -26.41)"/><path class="cls-2" d="M847.67,27.25s82.1,53.62,198.35,0" transform="translate(-394.63 -26.41)"/><path class="cls-2" d="M852.61,48.27s71.27,52.33,189.39,0" transform="translate(-394.63 -26.41)"/></svg>