<svg id="Ebene_1" data-name="Ebene 1" xmlns="http://www.w3.org/2000/svg" viewBox="0 0 1112 1032.09"><defs><style>.cls-1{fill:#f6efd2;}.cls-1,.cls-2{stroke:#000;stroke-miterlimit:10;stroke-width:7px;}.cls-2{fill:none;}</style></defs><path class="cls-1" d="M613.62,126.65,860.4,27.94s80.92,53.64,198.18,0l245.88,98.71L1511.68,293l-107.3,193.13-118-42.91V1052.6h-652l-2.53-607.29L518.13,483.94,408.69,293Z" transform="translate(-404.17 -24.01)"/><line class="cls-1" x1="230.08" y1="995.89" x2="882.18" y2="995.89"/><path class="cls-1" d="M434.14,272.3,551.63,472.56Z" transform="translate(-404.17 -24.01)"/><path class="cls-1" d="M1485.94,272.3,1372,472.56Z" transform="translate(-404.17 -24.01)"/><path class="cls-1" d="M613.62,126.65s62.23,158.79,18.24,318.66C631.86,445.31,678,330.51,613.62,126.65Z" transform="translate(-404.17 -24.01)"/><path class="cls-1" d="M1304.75,125.21S1242.52,284,1286.51,443.87C1286.51,443.87,1240.37,329.07,1304.75,125.21Z" transform="translate(-404.17 -24.01)"/><path class="cls-2" d="M824.39,42.07C884.46,88.54,966.58,88.65,1036.11,66a326.11,326.11,0,0,0,56.83-24.68" transform="translate(-404.17 -24.01)"/><path class="cls-2" d="M860.4,27.94s82.06,54.1,198.18,0" transform="translate(-404.17 -24.01)"/></svg>