<svg id="Ebene_1" data-name="Ebene 1" xmlns="http://www.w3.org/2000/svg" viewBox="0 0 1105.82 1027.09"><defs><style>.cls-1,.cls-2{stroke:#fff;stroke-width:1.5px;}.cls-1,.cls-2,.cls-4{stroke-miterlimit:10;}.cls-2{fill:none;}.cls-3,.cls-4{fill:#bac9e3;}.cls-4{stroke:#bac9e3;stroke-width:0.75px;}</style></defs><path class="cls-1" d="M636.83,128.21l247-98.79s81,53.69,198.34,0l246.08,98.79,207.39,166.44L1428.24,487.94,1310.12,445v609.93H657.62l-2.53-607.78L541.26,485.79,431.73,294.65Z" transform="translate(-430.76 -28.58)"/><path class="cls-1" d="M457.2,274,574.79,474.41Z" transform="translate(-430.76 -28.58)"/><path class="cls-1" d="M1509.86,274l-114,200.43Z" transform="translate(-430.76 -28.58)"/><path class="cls-1" d="M636.83,128.21s62.28,158.93,18.26,318.93C655.09,447.14,701.26,332.24,636.83,128.21Z" transform="translate(-430.76 -28.58)"/><path class="cls-1" d="M1328.52,126.77s-62.28,158.93-18.26,318.92C1310.26,445.69,1264.09,330.8,1328.52,126.77Z" transform="translate(-430.76 -28.58)"/><line class="cls-1" x1="226.71" y1="993.61" x2="879.35" y2="993.61"/><path class="cls-1" d="M862.27,37.15c11.1,48,34.54,106.22,79.17,132.44a85.47,85.47,0,0,0,42.23,12" transform="translate(-430.76 -28.58)"/><path class="cls-1" d="M1104.87,38.08c-12.74,62.21-49.25,139.53-121.2,143.52" transform="translate(-430.76 -28.58)"/><path class="cls-1" d="M883.14,30.41S907.84,154.74,983,155.53" transform="translate(-430.76 -28.58)"/><path class="cls-1" d="M1082.87,30.41S1058.18,154.74,983,155.53" transform="translate(-430.76 -28.58)"/><path class="cls-2" d="M888.74,50.44s71.28,52.33,189.4,0" transform="translate(-430.76 -28.58)"/><path class="cls-2" d="M883.81,29.42s82.09,53.62,198.34,0" transform="translate(-430.76 -28.58)"/><path class="cls-3" d="M1061.34,392.42c0-16.82,10-27.45,28-27.45s28.06,10.63,28.06,27.45v40.12H1107V392.42c0-11.14-6.07-17.93-17.72-17.93s-17.63,6.79-17.63,17.93v40.12h-10.33Z" transform="translate(-430.76 -28.58)"/><path class="cls-3" d="M1126.07,399.41c0-19.86,14.58-34.44,35.25-34.44s35.25,14.58,35.25,34.44-14.58,34.44-35.25,34.44S1126.07,419.26,1126.07,399.41Zm60.07,0c0-14.39-10.13-24.92-24.82-24.92S1136.5,385,1136.5,399.41s10.13,24.92,24.82,24.92S1186.14,413.79,1186.14,399.41Z" transform="translate(-430.76 -28.58)"/><path class="cls-4" d="M1068.39,483.47v.91h-19.15v-.91c5.47-.09,6.38-2.83,6.38-5.47V453.38c0-13.69-9.85-14.6-13.68-14.6-3.46,0-13.68.91-13.68,14.6V478c0,2.74.91,5.47,6.39,5.47v.91H1015.5v-.91c5.47,0,6.38-2.73,6.38-5.47V416.89c0-4-2.1-5.1-8-1.82l-.45-.91,13.95-8.21h.91v41c2.74-8.48,11-9.12,13.68-9.12,3.65,0,20.07.91,20.07,18.51V478C1062.1,480.74,1063,483.47,1068.39,483.47Z" transform="translate(-430.76 -28.58)"/><path class="cls-4" d="M1116,472.53c0,7.29-10,12.77-22.8,12.77-12.59,0-22.8-11.13-22.8-23.72s10.21-23.71,22.8-23.71,14.87,6,18.24,8.21c2.28,1.46,3.92,1,5.93-.09l1.37-.82.45.91-24.62,14.32c-1,.64-2.1,1.27-3.1,1.82a33.44,33.44,0,0,1,8.11-.91C1109.62,461.31,1116,466.14,1116,472.53Zm-38.3-10.95a40.05,40.05,0,0,0,1.18,10.31,7.26,7.26,0,0,1,1.92-3.47h-.09l.18-.18c3-3.19,8.3-5.74,12.49-8.21l5.84-3.37c3.92-2.46,4.92-3.92,4.92-7.85,0-6.38-6.38-10-10.94-10S1077.7,440.61,1077.7,461.58Zm31.92,10.95c0-5.47-2.74-10.31-10-10.31-5.92-.09-9.85,1.1-13,3-5.29,3.28-8.57,6.39-5.93,11.4a13.48,13.48,0,0,0,12.59,7.75C1101.41,484.38,1109.62,482.56,1109.62,472.53Z" transform="translate(-430.76 -28.58)"/><path class="cls-4" d="M1163.88,483.47v.91h-12.77v-6.29c-1.64,4.38-5.56,7.21-12.77,7.21-8.2,0-16.41-3.65-16.41-13.68s9.12-14.6,21-14.6c7.3,0,10-4.56,10-9.12s-1.83-9.12-12.77-9.12-13.68,8.21-13.68,13.68h-.91V437.87h.91c0,1.82.45,2.74,2.46,2.74,1.46,0,4.83-2.74,11.22-2.74,14.59,0,20.06,5.29,20.06,10,0,5.48-5.47,10-17.33,10-11,0-13.68,5.74-13.68,13.68s2.28,12.76,9.12,12.76c8.21,0,12.77-4.56,12.77-11.85,0-4.2-2.1-5.29-8-1.83l-.46-.91,13.95-8.21h.92V478C1157.5,480.74,1158.41,483.47,1163.88,483.47Z" transform="translate(-430.76 -28.58)"/><path class="cls-4" d="M1213,447l-20.8,12.31-.45-.91,1.64-.91c2.28-1.55,5.56-4.2,5.47-8.67.09-6.38-3.56-10-8.21-10-3.65,0-9.94.91-10,14.6V478c.09,2.74,1,5.47,6.38,5.47v.91H1167.8v-.91c5.57,0,6.48-2.73,6.39-5.47V448.81c0-4.1-2.19-5.19-8-1.82l-.46-.91,14-8.21h.91v7.94c2.1-7.48,7.2-7.94,10-7.94,6.48,0,11.31,3.92,13.68,6.84,2.56,2.83,4,3.74,7.66,1.73l.55-.36Z" transform="translate(-430.76 -28.58)"/><path class="cls-4" d="M1243.5,479.55a12.17,12.17,0,0,1-10.22,5.75c-12.58,0-14.5-11.95-14.59-19.16v-21c0-2.74-.91-5.48-6.38-5.48v-.91h11.58c-3.83-1.09-5.11-3.28-5.2-8.21.09-4.19-2.19-5.28-8-1.82l-.46-.91,14-8.21h.92v5.93c.09,13.22,4.65,13.22,14,13.22h.55v.91h-8.21c-5.29,0-6.38,2.74-6.38,5.48v21c-.1,13.78,5.65,17.33,10,17.33,2.46,0,5.2-.91,7.75-4.56Z" transform="translate(-430.76 -28.58)"/></svg>