<svg id="Ebene_1" data-name="Ebene 1" xmlns="http://www.w3.org/2000/svg" viewBox="0 0 1104.92 1026.25"><defs><style>.cls-1,.cls-2{stroke:#fff;stroke-miterlimit:10;stroke-width:1.5px;}.cls-2{fill:none;}</style></defs><path class="cls-1" d="M628.35,118.11,875.13,19.4s80.92,53.65,198.18,0l245.88,98.71,207.22,166.31-107.3,193.13-118-42.92v609.43h-652l-2.53-607.28L532.86,475.4l-109.44-191Z" transform="translate(-422.45 -18.56)"/><line class="cls-1" x1="226.53" y1="992.8" x2="878.64" y2="992.8"/><path class="cls-1" d="M448.87,263.77,566.36,464Z" transform="translate(-422.45 -18.56)"/><path class="cls-1" d="M1500.67,263.77,1386.75,464Z" transform="translate(-422.45 -18.56)"/><path class="cls-1" d="M628.35,118.11s62.23,158.8,18.24,318.67C646.59,436.78,692.73,322,628.35,118.11Z" transform="translate(-422.45 -18.56)"/><path class="cls-1" d="M1319.48,116.67s-62.23,158.8-18.24,318.66C1301.24,435.33,1255.1,320.53,1319.48,116.67Z" transform="translate(-422.45 -18.56)"/><path class="cls-2" d="M839.12,33.54C899.19,80,981.31,80.12,1050.84,57.48a325.4,325.4,0,0,0,56.83-24.69" transform="translate(-422.45 -18.56)"/><path class="cls-2" d="M875.13,19.4s82.06,54.1,198.18,0" transform="translate(-422.45 -18.56)"/></svg>