<svg id="Ebene_1" data-name="Ebene 1" xmlns="http://www.w3.org/2000/svg" viewBox="0 0 1105.82 1027.09"><defs><style>.cls-1{fill:#f6efd2;}.cls-1,.cls-2{stroke:#000;stroke-width:1.5px;}.cls-1,.cls-2,.cls-4{stroke-miterlimit:10;}.cls-2{fill:none;}.cls-3,.cls-4{fill:#8892ca;}.cls-4{stroke:#8892ca;stroke-width:0.75px;}</style></defs><path class="cls-1" d="M600.69,126l247-98.79s81,53.69,198.35,0L1292.09,126l207.39,166.44L1392.1,485.77,1274,442.82v609.93H621.48L619,445,505.12,483.62,395.59,292.48Z" transform="translate(-394.63 -26.41)"/><line class="cls-1" x1="226.71" y1="993.61" x2="879.35" y2="993.61"/><path class="cls-1" d="M421.06,271.82,538.65,472.24Z" transform="translate(-394.63 -26.41)"/><path class="cls-1" d="M1473.73,271.82l-114,200.42Z" transform="translate(-394.63 -26.41)"/><path class="cls-1" d="M600.69,126S663,285,619,445C619,445,665.12,330.07,600.69,126Z" transform="translate(-394.63 -26.41)"/><path class="cls-1" d="M1292.38,124.6s-62.28,158.93-18.25,318.93C1274.13,443.53,1228,328.63,1292.38,124.6Z" transform="translate(-394.63 -26.41)"/><path class="cls-1" d="M826.14,35c11.09,48,34.54,106.23,79.16,132.44a85.41,85.41,0,0,0,42.24,12" transform="translate(-394.63 -26.41)"/><path class="cls-1" d="M1068.73,35.91C1056,98.12,1019.48,175.44,947.54,179.43" transform="translate(-394.63 -26.41)"/><path class="cls-1" d="M847,28.24s24.69,124.33,99.86,125.12" transform="translate(-394.63 -26.41)"/><path class="cls-1" d="M1046.74,28.24S1022,152.57,946.87,153.36" transform="translate(-394.63 -26.41)"/><path class="cls-2" d="M847.67,27.25s82.1,53.62,198.35,0" transform="translate(-394.63 -26.41)"/><path class="cls-3" d="M1025.2,390.25c0-16.82,10-27.45,28-27.45s28.06,10.63,28.06,27.45v40.12h-10.34V390.25c0-11.14-6.07-17.93-17.72-17.93s-17.63,6.79-17.63,17.93v40.12H1025.2Z" transform="translate(-394.63 -26.41)"/><path class="cls-3" d="M1089.93,397.24c0-19.86,14.59-34.44,35.25-34.44s35.25,14.58,35.25,34.44-14.58,34.44-35.25,34.44S1089.93,417.1,1089.93,397.24Zm60.07,0c0-14.39-10.13-24.92-24.82-24.92s-24.82,10.53-24.82,24.92,10.13,24.92,24.82,24.92S1150,411.62,1150,397.24Z" transform="translate(-394.63 -26.41)"/><path class="cls-4" d="M1032.25,481.3v.91H1013.1v-.91c5.47-.09,6.38-2.82,6.38-5.47V451.21c0-13.68-9.85-14.6-13.68-14.6-3.46,0-13.68.92-13.68,14.6v24.62c0,2.74.92,5.47,6.39,5.47v.91H979.36v-.91c5.47,0,6.38-2.73,6.38-5.47v-61.1c0-4-2.1-5.11-8-1.83l-.45-.91,14-8.21h.91v41c2.74-8.48,11-9.12,13.68-9.12,3.65,0,20.07.91,20.07,18.52v21.61C1026,478.57,1026.87,481.3,1032.25,481.3Z" transform="translate(-394.63 -26.41)"/><path class="cls-4" d="M1079.86,470.36c0,7.29-10,12.77-22.8,12.77-12.59,0-22.8-11.13-22.8-23.72s10.21-23.71,22.8-23.71,14.87,6,18.24,8.21c2.28,1.46,3.92,1,5.93-.09l1.37-.82.45.91-24.62,14.32c-1,.64-2.1,1.27-3.1,1.82a33.47,33.47,0,0,1,8.12-.91C1073.48,459.14,1079.86,464,1079.86,470.36Zm-38.3-10.95a40.05,40.05,0,0,0,1.18,10.31,7.35,7.35,0,0,1,1.92-3.47h-.09l.18-.18c3-3.19,8.3-5.74,12.49-8.21l5.84-3.37c3.92-2.46,4.92-3.92,4.92-7.84,0-6.39-6.38-10-10.94-10S1041.56,438.44,1041.56,459.41Zm31.92,10.95c0-5.47-2.74-10.31-10-10.31-5.93-.09-9.86,1.1-13,3-5.29,3.29-8.57,6.39-5.93,11.4a13.48,13.48,0,0,0,12.59,7.75C1065.27,482.21,1073.48,480.39,1073.48,470.36Z" transform="translate(-394.63 -26.41)"/><path class="cls-4" d="M1127.74,481.3v.91H1115v-6.29c-1.64,4.38-5.56,7.21-12.76,7.21-8.21,0-16.42-3.65-16.42-13.68s9.12-14.6,21-14.6c7.29,0,10-4.56,10-9.12s-1.83-9.12-12.77-9.12-13.68,8.21-13.68,13.68h-.91V435.7h.91c0,1.83.45,2.74,2.46,2.74,1.46,0,4.83-2.74,11.22-2.74,14.59,0,20.06,5.29,20.06,10,0,5.48-5.47,10-17.32,10-11,0-13.69,5.74-13.69,13.68s2.29,12.76,9.13,12.76c8.2,0,12.76-4.56,12.76-11.85,0-4.2-2.09-5.29-8-1.83l-.46-.91,14-8.21h.91v16.42C1121.36,478.57,1122.27,481.3,1127.74,481.3Z" transform="translate(-394.63 -26.41)"/><path class="cls-4" d="M1176.81,444.82,1156,457.13l-.45-.91,1.64-.91c2.28-1.55,5.56-4.2,5.47-8.66.09-6.39-3.56-10-8.21-10-3.65,0-9.94.92-10,14.6v24.62c.09,2.74,1,5.47,6.38,5.47v.91h-19.15v-.91c5.57,0,6.48-2.73,6.39-5.47V446.65c0-4.11-2.19-5.2-8-1.83l-.46-.91,14-8.21h.91v7.94c2.1-7.48,7.2-7.94,10-7.94,6.48,0,11.31,3.92,13.68,6.84,2.56,2.83,4,3.74,7.66,1.73l.55-.36Z" transform="translate(-394.63 -26.41)"/><path class="cls-4" d="M1207.36,477.38a12.17,12.17,0,0,1-10.22,5.75c-12.58,0-14.5-11.95-14.59-19.16V443c0-2.74-.91-5.47-6.38-5.47v-.92h11.58c-3.83-1.09-5.11-3.28-5.2-8.2.09-4.2-2.19-5.29-8-1.83l-.46-.91,14-8.21h.92v5.93c.09,13.22,4.65,13.22,14,13.22h.55v.92h-8.21c-5.29,0-6.38,2.73-6.38,5.47v21c-.1,13.78,5.65,17.33,10,17.33,2.46,0,5.2-.91,7.75-4.56Z" transform="translate(-394.63 -26.41)"/><path class="cls-2" d="M852.61,48.27s71.27,52.33,189.39,0" transform="translate(-394.63 -26.41)"/></svg>