<svg id="Ebene_1" data-name="Ebene 1" xmlns="http://www.w3.org/2000/svg" viewBox="0 0 1099.33 1018.58"><defs><style>.cls-1,.cls-2{fill:#bac9e3;}.cls-2{stroke:#bac9e3;stroke-miterlimit:10;stroke-width:0.75px;}</style></defs><rect x="0.5" y="0.5" width="1098.33" height="1017.58" rx="41.49"/><path d="M1467.85,31.93a41,41,0,0,1,41,41v934.6a41,41,0,0,1-41,41H452.51a41,41,0,0,1-41-41V72.92a41,41,0,0,1,41-41H1467.85m0-1H452.51a42,42,0,0,0-42,42v934.6a42,42,0,0,0,42,42H1467.85a42,42,0,0,0,42-42V72.92a42,42,0,0,0-42-42Z" transform="translate(-410.52 -30.93)"/><path class="cls-1" d="M670.19,383.62c0-72.86,43.45-118.95,121.15-118.95,78.13,0,121.59,46.09,121.59,119V557.45H868.15V383.62c0-48.28-26.33-77.69-76.81-77.69-50,0-76.38,29.41-76.38,77.69V557.45H670.19Z" transform="translate(-410.52 -30.93)"/><path class="cls-1" d="M950.68,413.91c0-86,63.2-149.24,152.75-149.24s152.75,63.21,152.75,149.24S1193,563.15,1103.43,563.15,950.68,499.94,950.68,413.91Zm260.29,0c0-62.33-43.89-108-107.54-108s-107.54,45.65-107.54,108,43.89,108,107.54,108S1211,476.24,1211,413.91Z" transform="translate(-410.52 -30.93)"/><path class="cls-2" d="M700.76,778.17v4h-83v-4c23.71-.4,27.66-12.25,27.66-23.72V647.75c0-59.28-42.68-63.23-59.28-63.23-15,0-59.28,4-59.28,63.23v106.7c0,11.86,4,23.72,27.67,23.72v4h-83v-4c23.72,0,27.67-11.86,27.67-23.72V489.67c0-17.39-9.09-22.13-34.78-7.91l-2-3.95,60.47-35.57h4V620.09c11.86-36.76,47.43-39.53,59.28-39.53,15.81,0,87,4,87,80.23v93.66C673.49,766.31,677.44,778.17,700.76,778.17Z" transform="translate(-410.52 -30.93)"/><path class="cls-2" d="M907.06,730.74c0,31.62-43.47,55.33-98.8,55.33-54.54,0-98.8-48.21-98.8-102.75s44.26-102.76,98.8-102.76c54.14,0,64.42,26.09,79,35.57,9.88,6.33,17,4.35,25.69-.39l5.93-3.56,2,4-106.7,62c-4.35,2.77-9.09,5.53-13.44,7.9a145.68,145.68,0,0,1,35.17-4C879.39,682.13,907.06,703.08,907.06,730.74Zm-166-47.42c0,18.18,2,32.8,5.14,44.66,1.19-5.54,3.95-10.28,8.3-15h-.39l.79-.79c13-13.83,36-24.9,54.14-35.57L834.34,662c17-10.67,21.34-17,21.34-34,0-27.67-27.66-43.47-47.42-43.47S741.07,592.42,741.07,683.32Zm138.32,47.42c0-23.71-11.85-44.66-43.47-44.66-25.69-.39-42.68,4.75-56.51,13-22.92,14.22-37.15,27.66-25.69,49.4,15.41,30,41.1,33.59,54.54,33.59C843.83,782.12,879.39,774.21,879.39,730.74Z" transform="translate(-410.52 -30.93)"/><path class="cls-2" d="M1114.54,778.17v4h-55.33V754.85c-7.12,19-24.11,31.22-55.33,31.22-35.57,0-71.14-15.81-71.14-59.28s39.52-63.23,90.9-63.23c31.62,0,43.47-19.76,43.47-39.52s-7.9-39.52-55.33-39.52S952.5,620.09,952.5,643.8h-4V580.56h4c0,7.91,2,11.86,10.67,11.86,6.33,0,21-11.86,48.61-11.86,63.24,0,87,22.93,87,43.48,0,23.71-23.71,43.47-75.09,43.47-47.82,0-59.28,24.9-59.28,59.28s9.88,55.33,39.52,55.33c35.57,0,55.33-19.76,55.33-51.38,0-18.18-9.09-22.92-34.78-7.9l-2-4,60.47-35.57h3.95v71.13C1086.87,766.31,1090.82,778.17,1114.54,778.17Z" transform="translate(-410.52 -30.93)"/><path class="cls-2" d="M1327.15,620.09l-90.1,53.35-2-4,7.12-4c9.87-6.71,24.1-18.18,23.71-37.54.39-27.67-15.42-43.47-35.57-43.47-15.81,0-43.08,4-43.47,63.23v106.7c.39,11.86,4.34,23.72,27.66,23.72v4h-83v-4c24.11,0,28.06-11.86,27.66-23.72V628c0-17.78-9.48-22.53-34.78-7.9l-2-4,60.46-35.57h4V615c9.09-32.41,31.22-34.39,43.47-34.39,28.06,0,49,17,59.28,29.65,11.07,12.25,17.39,16.2,33.2,7.5l2.37-1.58Z" transform="translate(-410.52 -30.93)"/><path class="cls-2" d="M1459.54,761.17c-5.93,10.28-21.74,24.9-44.26,24.9-54.54,0-62.84-51.77-63.23-83v-90.9c0-11.86-4-23.71-27.67-23.71v-4h50.19c-16.6-4.75-22.13-14.23-22.52-35.57.39-18.18-9.49-22.92-34.78-7.91l-2-3.95,60.47-35.57h4v25.69c.39,57.31,20.16,57.31,60.86,57.31h2.37v4h-35.57c-22.92,0-27.66,11.85-27.66,23.71v90.9c-.4,59.67,24.5,75.09,43.47,75.09,10.67,0,22.53-4,33.59-19.76Z" transform="translate(-410.52 -30.93)"/></svg>