<svg id="Ebene_1" data-name="Ebene 1" xmlns="http://www.w3.org/2000/svg" viewBox="-100 0 1100 1026.25"><defs><style>.cls-1{stroke:#fff;stroke-miterlimit:10;stroke-width:7px;}.cls-2{fill:#bac9e3;}</style></defs><path class="cls-1" d="M733.52,196s-41,21.42-60.06,39.93-65.69,63.77-90.76,148.24c0,0-13.12,33.94-22,115.33s-13.88,123-13.88,123-4.63,42-13.12,173.57L531,969.3,683.36,972v11.18h552.71V972l153.12-3.86-3.08-185.91s-4.24-94.88-10.8-145.79-8.1-74.44-8.1-74.44-20.83-176.91-37-204.68c0,0-29.7-80.35-95.65-132.81,0,0-18.52-15.81-48.09-28.93" transform="translate(-526.74 -23.87)"/><polyline class="cls-1" points="156.63 948.13 149.85 975.18 136.57 1028.16 20.67 1028.16 4.28 945.43 156.63 948.13"/><polygon class="cls-1" points="709.34 959.31 705.48 1029 161.38 1028.16 158.81 959.31 709.34 959.31"/><path class="cls-1" d="M949.11,256.14s57.19,5.21,136-19.93c88.71-28.28,92.83-27.77,101.31-40.63,0,0,5.66-5.14,6.43-23.65,0,0-2.31-26.49-18-74.83s-42.94-50.4-72.77-62.22c0,0-11.28-5.92-141.41-7.46,0,0-115-1.29-149.15,9.26s-47.31,27.25-47.31,27.25-9.51,7.72-20.05,44c0,0-16.46,48.09-16.2,67.11s7.26,22.5,7.26,22.5,28.16,21.6,108.57,39.73c0,0,37,10.41,65,16.2,0,0,27.58,5.33,39,3.15" transform="translate(-526.74 -23.87)"/><path class="cls-1" d="M1149.29,59.43c-.39,39.73-42,82.93-69.81,96.81s-130.37,99.9-130.37,99.9" transform="translate(-526.74 -23.87)"/><path class="cls-1" d="M960.69,246.51S868.11,169,826.07,144.67s-56.31-81.38-55.54-85.24" transform="translate(-526.74 -23.87)"/><path class="cls-1" d="M1216.2,212.46s-16.38,104.75-7.51,173.51,25.45,89.24,25.45,89.24l1.93,1.54V979.33" transform="translate(-526.74 -23.87)"/><path class="cls-1" d="M703.24,213.64s16.38,104.6,7.51,173.25S685.29,476,685.29,476l-1.93,1.54v501.8" transform="translate(-526.74 -23.87)"/><polyline class="cls-1" points="709.34 948.13 861.69 945.43 845.29 1028.16 729.39 1028.16 709.34 948.13"/><path class="cls-2" d="M926,448.68c0-9.7,5.78-15.83,16.12-15.83s16.18,6.13,16.18,15.83v23.14h-5.95V448.68c0-6.43-3.5-10.34-10.22-10.34S932,442.25,932,448.68v23.14h-6Z" transform="translate(-526.74 -23.87)"/><path class="cls-2" d="M963.32,452.71c0-11.45,8.41-19.86,20.33-19.86s20.33,8.41,20.33,19.86-8.41,19.86-20.33,19.86S963.32,464.16,963.32,452.71Zm34.64,0c0-8.3-5.84-14.37-14.31-14.37s-14.31,6.07-14.31,14.37,5.84,14.37,14.31,14.37S998,461,998,452.71Z" transform="translate(-526.74 -23.87)"/><path class="cls-2" d="M930.06,501.19v.53H919v-.53c3.16-.05,3.68-1.63,3.68-3.15v-14.2c0-7.89-5.68-8.42-7.89-8.42-2,0-7.89.53-7.89,8.42V498c0,1.58.53,3.15,3.68,3.15v.53h-11v-.53c3.15,0,3.68-1.57,3.68-3.15V462.79c0-2.31-1.21-2.94-4.63-1.05l-.26-.52,8-4.74h.52v23.67c1.58-4.89,6.32-5.26,7.89-5.26,2.11,0,11.58.53,11.58,10.68V498C926.43,499.62,927,501.19,930.06,501.19Z" transform="translate(-526.74 -23.87)"/><path class="cls-2" d="M957.51,494.88c0,4.21-5.78,7.37-13.15,7.37s-13.15-6.42-13.15-13.68,5.9-13.68,13.15-13.68,8.58,3.47,10.52,4.74a2.91,2.91,0,0,0,3.42-.06l.79-.47.27.53-14.21,8.26c-.57.36-1.21.73-1.78,1.05a19.24,19.24,0,0,1,4.68-.53C953.83,488.41,957.51,491.2,957.51,494.88Zm-22.09-6.31a23,23,0,0,0,.69,5.94,4.21,4.21,0,0,1,1.1-2h-.05l.1-.1c1.74-1.84,4.79-3.31,7.21-4.73l3.37-1.95c2.26-1.42,2.84-2.26,2.84-4.52,0-3.69-3.69-5.79-6.32-5.79S935.42,476.47,935.42,488.57Zm18.41,6.31c0-3.15-1.58-5.94-5.78-5.94a13.51,13.51,0,0,0-7.53,1.73c-3,1.9-4.94,3.69-3.41,6.58a7.76,7.76,0,0,0,7.25,4.47C949.1,501.72,953.83,500.67,953.83,494.88Z" transform="translate(-526.74 -23.87)"/><path class="cls-2" d="M985.13,501.19v.53h-7.36v-3.63c-.95,2.53-3.21,4.16-7.37,4.16-4.73,0-9.47-2.11-9.47-7.89s5.26-8.42,12.1-8.42c4.21,0,5.79-2.63,5.79-5.26s-1.05-5.26-7.37-5.26-7.89,4.73-7.89,7.89H963v-8.42h.52c0,1.06.27,1.58,1.42,1.58.84,0,2.79-1.58,6.47-1.58,8.42,0,11.58,3.05,11.58,5.79,0,3.16-3.16,5.79-10,5.79-6.36,0-7.89,3.31-7.89,7.89s1.32,7.36,5.26,7.36c4.74,0,7.37-2.63,7.37-6.84,0-2.42-1.21-3.05-4.63-1.05l-.27-.53,8-4.73h.53V498C981.45,499.62,982,501.19,985.13,501.19Z" transform="translate(-526.74 -23.87)"/><path class="cls-2" d="M1013.43,480.15l-12,7.1-.27-.52,1-.53c1.31-.89,3.21-2.42,3.16-5,.05-3.69-2.06-5.79-4.74-5.79-2.1,0-5.73.53-5.79,8.42V498c.06,1.58.58,3.15,3.69,3.15v.53H987.39v-.53c3.21,0,3.74-1.57,3.68-3.15V481.21c0-2.37-1.26-3-4.63-1.06l-.26-.52,8.05-4.74h.52v4.58c1.21-4.31,4.16-4.58,5.79-4.58a10.45,10.45,0,0,1,7.89,3.95c1.47,1.63,2.32,2.15,4.42,1l.32-.21Z" transform="translate(-526.74 -23.87)"/><path class="cls-2" d="M1031.05,498.93a7,7,0,0,1-5.89,3.32c-7.26,0-8.37-6.9-8.42-11.05V479.1c0-1.58-.53-3.15-3.68-3.15v-.53h6.68c-2.21-.63-3-1.89-3-4.74,0-2.41-1.26-3.05-4.63-1.05l-.26-.52,8-4.74h.52v3.42c.06,7.63,2.69,7.63,8.1,7.63h.32V476h-4.73c-3.06,0-3.69,1.57-3.69,3.15v12.1c0,7.94,3.26,10,5.79,10a5.22,5.22,0,0,0,4.47-2.63Z" transform="translate(-526.74 -23.87)"/></svg>