<svg id="Ebene_1" data-name="Ebene 1" xmlns="http://www.w3.org/2000/svg" viewBox="-100 0 1100 1026.25"><defs><style>.cls-1{fill:#fff;stroke:#000;stroke-miterlimit:10;stroke-width:2px;}.cls-2{fill:#bac9e3;}</style></defs><path class="cls-1" d="M733.7,196.24s-41,21.42-60.05,39.93S608,299.94,582.88,384.41c0,0-13.12,33.94-22,115.33s-13.88,123-13.88,123-4.63,42.05-13.12,173.57l-2.7,173.18,152.35,2.7V983.4h552.71V972.22l153.13-3.86-3.09-185.91s-4.24-94.88-10.8-145.79-8.1-74.44-8.1-74.44-20.83-176.91-37-204.68c0,0-29.7-80.35-95.65-132.81,0,0-18.51-15.81-48.08-28.93" transform="translate(-529.97 -26.59)"/><polyline class="cls-1" points="153.57 945.63 146.79 972.68 133.52 1025.66 17.61 1025.66 1.22 942.93 153.57 945.63"/><polygon class="cls-1" points="706.28 956.81 702.42 1026.5 158.33 1025.66 155.76 956.81 706.28 956.81"/><path class="cls-1" d="M949.29,256.36s57.19,5.21,136-19.93c88.71-28.28,92.82-27.77,101.31-40.63,0,0,5.65-5.14,6.42-23.65,0,0-2.31-26.49-18-74.83s-43-50.4-72.77-62.22c0,0-11.29-5.92-141.41-7.46,0,0-115-1.29-149.15,9.26s-47.32,27.25-47.32,27.25-9.51,7.72-20,44c0,0-16.46,48.09-16.2,67.11s7.26,22.5,7.26,22.5,28.16,21.6,108.58,39.73c0,0,37,10.41,65,16.2,0,0,27.57,5.33,39,3.15" transform="translate(-529.97 -26.59)"/><path class="cls-1" d="M1149.47,59.65c-.39,39.73-42,82.93-69.81,96.81s-130.37,99.9-130.37,99.9" transform="translate(-529.97 -26.59)"/><path class="cls-1" d="M960.88,246.73S868.3,169.19,826.25,144.89s-56.31-81.38-55.54-85.24" transform="translate(-529.97 -26.59)"/><path class="cls-1" d="M1216.38,212.68S1200,317.43,1208.87,386.2s25.45,89.23,25.45,89.23l1.93,1.55V979.55" transform="translate(-529.97 -26.59)"/><path class="cls-1" d="M703.42,213.86s16.38,104.6,7.51,173.25-25.46,89.1-25.46,89.1l-1.93,1.54v501.8" transform="translate(-529.97 -26.59)"/><polyline class="cls-1" points="706.28 945.63 858.63 942.93 842.24 1025.66 726.34 1025.66 706.28 945.63"/><path class="cls-2" d="M914.59,447.4c0-9.7,5.78-15.84,16.12-15.84s16.18,6.14,16.18,15.84v23.13h-6V447.4c0-6.43-3.5-10.34-10.22-10.34S920.54,441,920.54,447.4v23.13h-5.95Z" transform="translate(-529.97 -26.59)"/><path class="cls-2" d="M951.92,451.43c0-11.45,8.41-19.87,20.33-19.87s20.33,8.42,20.33,19.87-8.41,19.86-20.33,19.86S951.92,462.88,951.92,451.43Zm34.64,0c0-8.3-5.84-14.38-14.31-14.38s-14.32,6.08-14.32,14.38,5.85,14.37,14.32,14.37S986.56,459.72,986.56,451.43Z" transform="translate(-529.97 -26.59)"/><path class="cls-2" d="M918.66,499.91v.53h-11v-.53c3.16-.05,3.68-1.63,3.68-3.16v-14.2c0-7.89-5.68-8.42-7.89-8.42-2,0-7.89.53-7.89,8.42v14.2c0,1.58.53,3.16,3.68,3.16v.53h-11v-.53c3.15,0,3.68-1.58,3.68-3.16V461.51c0-2.31-1.21-2.95-4.63-1.05l-.26-.53,8-4.73h.52v23.67c1.58-4.89,6.31-5.26,7.89-5.26,2.11,0,11.57.52,11.57,10.68v12.46C915,498.33,915.55,499.91,918.66,499.91Z" transform="translate(-529.97 -26.59)"/><path class="cls-2" d="M946.11,493.6c0,4.21-5.78,7.36-13.15,7.36s-13.15-6.42-13.15-13.68,5.89-13.67,13.15-13.67,8.58,3.47,10.52,4.73a2.92,2.92,0,0,0,3.42,0l.79-.47.26.52-14.2,8.26c-.58.37-1.21.74-1.79,1a19.32,19.32,0,0,1,4.69-.52C942.43,487.13,946.11,489.91,946.11,493.6ZM924,487.28a23.19,23.19,0,0,0,.68,6,4.22,4.22,0,0,1,1.11-2h0l.1-.11c1.74-1.84,4.79-3.31,7.21-4.73l3.36-1.95c2.27-1.42,2.85-2.26,2.85-4.52,0-3.68-3.69-5.79-6.32-5.79S924,475.19,924,487.28Zm18.41,6.32c0-3.16-1.58-6-5.78-6a13.48,13.48,0,0,0-7.53,1.74c-3,1.89-4.94,3.68-3.42,6.57a7.79,7.79,0,0,0,7.26,4.48C937.7,500.44,942.43,499.38,942.43,493.6Z" transform="translate(-529.97 -26.59)"/><path class="cls-2" d="M973.73,499.91v.53h-7.37v-3.63c-.94,2.52-3.2,4.15-7.36,4.15-4.73,0-9.47-2.1-9.47-7.89s5.26-8.42,12.1-8.42c4.21,0,5.79-2.63,5.79-5.26s-1.06-5.26-7.37-5.26-7.89,4.74-7.89,7.89h-.52v-8.41h.52c0,1.05.26,1.58,1.42,1.58.84,0,2.79-1.58,6.47-1.58,8.42,0,11.57,3.05,11.57,5.78,0,3.16-3.15,5.79-10,5.79-6.36,0-7.89,3.31-7.89,7.89s1.31,7.37,5.26,7.37c4.73,0,7.36-2.63,7.36-6.84,0-2.42-1.21-3.05-4.62-1.05l-.27-.53,8-4.74h.53v9.47C970.05,498.33,970.57,499.91,973.73,499.91Z" transform="translate(-529.97 -26.59)"/><path class="cls-2" d="M1002,478.87,990,486l-.26-.53,1-.52c1.31-.9,3.21-2.42,3.15-5,.06-3.68-2-5.79-4.73-5.79-2.1,0-5.73.53-5.79,8.42v14.2c.06,1.58.58,3.16,3.69,3.16v.53H976v-.53c3.21,0,3.73-1.58,3.68-3.16V479.92c0-2.37-1.26-3-4.63-1.05l-.26-.53,8.05-4.73h.52v4.57c1.21-4.31,4.16-4.57,5.79-4.57a10.49,10.49,0,0,1,7.89,3.94c1.47,1.63,2.31,2.16,4.42,1l.31-.21Z" transform="translate(-529.97 -26.59)"/><path class="cls-2" d="M1019.65,497.65a7,7,0,0,1-5.89,3.31c-7.26,0-8.37-6.89-8.42-11V477.82c0-1.58-.53-3.16-3.68-3.16v-.53h6.68c-2.21-.63-3-1.89-3-4.73,0-2.42-1.26-3-4.63-1l-.26-.53,8-4.73h.52v3.42c.05,7.62,2.68,7.62,8.1,7.62h.32v.53h-4.74c-3.05,0-3.68,1.58-3.68,3.16v12.09c0,7.95,3.26,10,5.79,10a5.25,5.25,0,0,0,4.47-2.63Z" transform="translate(-529.97 -26.59)"/></svg>