<svg id="Ebene_1" data-name="Ebene 1" xmlns="http://www.w3.org/2000/svg" viewBox="-100 0 1100 1026.25"><defs><style>.cls-1{fill:#f6efd2;stroke:#000;stroke-miterlimit:10;stroke-width:2px;}.cls-2{fill:#8892ca;}</style></defs><path class="cls-1" d="M733.7,196.24s-41,21.42-60.05,39.93S608,299.94,582.88,384.41c0,0-13.12,33.94-22,115.33s-13.88,123-13.88,123-4.63,42.05-13.12,173.57l-2.7,173.18,152.35,2.7V983.4h552.71V972.22l153.13-3.86-3.09-185.91s-4.24-94.88-10.8-145.79-8.1-74.44-8.1-74.44-20.83-176.91-37-204.68c0,0-29.7-80.35-95.65-132.81,0,0-18.51-15.81-48.08-28.93" transform="translate(-529.97 -26.59)"/><polyline class="cls-1" points="153.57 945.63 146.79 972.68 133.52 1025.66 17.61 1025.66 1.22 942.93 153.57 945.63"/><polygon class="cls-1" points="706.28 956.81 702.42 1026.5 158.33 1025.66 155.76 956.81 706.28 956.81"/><path class="cls-1" d="M949.29,256.36s57.19,5.21,136-19.93c88.71-28.28,92.82-27.77,101.31-40.63,0,0,5.65-5.14,6.42-23.65,0,0-2.31-26.49-18-74.83s-43-50.4-72.77-62.22c0,0-11.29-5.92-141.41-7.46,0,0-115-1.29-149.15,9.26s-47.32,27.25-47.32,27.25-9.51,7.72-20,44c0,0-16.46,48.09-16.2,67.11s7.26,22.5,7.26,22.5,28.16,21.6,108.58,39.73c0,0,37,10.41,65,16.2,0,0,27.57,5.33,39,3.15" transform="translate(-529.97 -26.59)"/><path class="cls-1" d="M1149.47,59.65c-.39,39.73-42,82.93-69.81,96.81s-130.37,99.9-130.37,99.9" transform="translate(-529.97 -26.59)"/><path class="cls-1" d="M960.88,246.73S868.3,169.19,826.25,144.89s-56.31-81.38-55.54-85.24" transform="translate(-529.97 -26.59)"/><path class="cls-1" d="M1216.38,212.68S1200,317.43,1208.87,386.2s25.45,89.23,25.45,89.23l1.93,1.55V979.55" transform="translate(-529.97 -26.59)"/><path class="cls-1" d="M703.42,213.86s16.38,104.6,7.51,173.25-25.46,89.1-25.46,89.1l-1.93,1.54v501.8" transform="translate(-529.97 -26.59)"/><polyline class="cls-1" points="706.28 945.63 858.63 942.93 842.24 1025.66 726.34 1025.66 706.28 945.63"/><path class="cls-2" d="M925.58,449c0-9.69,5.78-15.83,16.12-15.83s16.18,6.14,16.18,15.83v23.14h-6V449c0-6.42-3.51-10.34-10.23-10.34s-10.16,3.92-10.16,10.34v23.14h-6Z" transform="translate(-529.97 -26.59)"/><path class="cls-2" d="M962.91,453c0-11.45,8.41-19.86,20.33-19.86s20.33,8.41,20.33,19.86-8.41,19.87-20.33,19.87S962.91,464.46,962.91,453Zm34.64,0c0-8.29-5.84-14.37-14.31-14.37s-14.31,6.08-14.31,14.37,5.84,14.38,14.31,14.38S997.55,461.3,997.55,453Z" transform="translate(-529.97 -26.59)"/><path class="cls-2" d="M929.65,501.49V502h-11v-.52c3.16-.06,3.68-1.63,3.68-3.16v-14.2c0-7.89-5.68-8.42-7.89-8.42-2,0-7.89.53-7.89,8.42v14.2c0,1.58.53,3.16,3.69,3.16V502H899.14v-.52c3.16,0,3.68-1.58,3.68-3.16V463.09c0-2.32-1.21-2.95-4.63-1l-.26-.53,8.05-4.73h.52v23.67c1.58-4.89,6.32-5.26,7.89-5.26,2.11,0,11.58.52,11.58,10.67v12.47C926,499.91,926.54,501.49,929.65,501.49Z" transform="translate(-529.97 -26.59)"/><path class="cls-2" d="M957.11,495.18c0,4.2-5.79,7.36-13.15,7.36s-13.15-6.42-13.15-13.68,5.89-13.67,13.15-13.67,8.57,3.47,10.52,4.73a2.91,2.91,0,0,0,3.41-.05l.79-.47.27.52-14.21,8.26c-.57.37-1.21.74-1.78,1.05a19.24,19.24,0,0,1,4.68-.52C953.42,488.71,957.11,491.49,957.11,495.18ZM935,488.86a23.14,23.14,0,0,0,.69,5.95,4.2,4.2,0,0,1,1.1-2h0l.1-.11c1.74-1.84,4.79-3.31,7.21-4.73l3.37-2c2.26-1.42,2.84-2.26,2.84-4.52,0-3.68-3.68-5.79-6.31-5.79S935,476.77,935,488.86Zm18.41,6.32c0-3.16-1.57-5.95-5.78-5.95a13.44,13.44,0,0,0-7.52,1.74c-3.06,1.89-5,3.68-3.42,6.57A7.76,7.76,0,0,0,944,502C948.69,502,953.42,501,953.42,495.18Z" transform="translate(-529.97 -26.59)"/><path class="cls-2" d="M984.72,501.49V502h-7.36v-3.63c-1,2.53-3.21,4.16-7.37,4.16-4.73,0-9.47-2.1-9.47-7.89s5.26-8.42,12.1-8.42c4.21,0,5.79-2.63,5.79-5.26s-1-5.26-7.37-5.26-7.89,4.74-7.89,7.89h-.52v-8.41h.52c0,1.05.27,1.58,1.42,1.58.85,0,2.79-1.58,6.47-1.58,8.42,0,11.58,3.05,11.58,5.78,0,3.16-3.16,5.79-10,5.79-6.36,0-7.89,3.31-7.89,7.89S966.05,502,970,502c4.74,0,7.37-2.63,7.37-6.83,0-2.42-1.21-3.06-4.63-1.06l-.27-.52,8-4.74H981v9.47C981,499.91,981.56,501.49,984.72,501.49Z" transform="translate(-529.97 -26.59)"/><path class="cls-2" d="M1013,480.45l-12,7.1-.27-.53,1-.52c1.32-.9,3.21-2.42,3.16-5,0-3.68-2.06-5.79-4.74-5.79-2.1,0-5.73.53-5.78,8.42v14.2c0,1.58.57,3.16,3.68,3.16V502H987v-.52c3.21,0,3.74-1.58,3.68-3.16V481.5c0-2.37-1.26-3-4.63-1.05l-.26-.53,8.05-4.73h.53v4.57c1.21-4.31,4.15-4.57,5.78-4.57a10.48,10.48,0,0,1,7.89,3.94c1.48,1.63,2.32,2.16,4.42,1l.32-.21Z" transform="translate(-529.97 -26.59)"/><path class="cls-2" d="M1030.64,499.23a7,7,0,0,1-5.89,3.31c-7.26,0-8.37-6.89-8.42-11.05V479.4c0-1.58-.52-3.16-3.68-3.16v-.53h6.68c-2.21-.63-3-1.89-3-4.73,0-2.42-1.26-3.05-4.63-1.05l-.26-.53,8-4.73h.52v3.42c.06,7.62,2.69,7.62,8.1,7.62h.32v.53h-4.73c-3.05,0-3.69,1.58-3.69,3.16v12.09c0,7.95,3.27,10,5.79,10a5.25,5.25,0,0,0,4.47-2.63Z" transform="translate(-529.97 -26.59)"/></svg>