<svg id="Ebene_1" data-name="Ebene 1" xmlns="http://www.w3.org/2000/svg" viewBox="-100 0 1100 1026.25"><defs><style>.cls-1{fill:#fff;stroke:#000;stroke-miterlimit:10;stroke-width:7px;}.cls-2{fill:#bac9e3;}</style></defs><path class="cls-1" d="M733.52,196s-41,21.42-60.06,39.93-65.69,63.77-90.76,148.24c0,0-13.12,33.94-22,115.33s-13.88,123-13.88,123-4.63,42-13.12,173.57L531,969.3,683.36,972v11.18h552.71V972l153.12-3.86-3.08-185.91s-4.24-94.88-10.8-145.79-8.1-74.44-8.1-74.44-20.83-176.91-37-204.68c0,0-29.7-80.35-95.65-132.81,0,0-18.52-15.81-48.09-28.93" transform="translate(-526.74 -23.87)"/><polyline class="cls-1" points="156.63 948.13 149.85 975.18 136.57 1028.16 20.67 1028.16 4.28 945.43 156.63 948.13"/><polygon class="cls-1" points="709.34 959.31 705.48 1029 161.38 1028.16 158.81 959.31 709.34 959.31"/><path class="cls-1" d="M949.11,256.14s57.19,5.21,136-19.93c88.71-28.28,92.83-27.77,101.31-40.63,0,0,5.66-5.14,6.43-23.65,0,0-2.31-26.49-18-74.83s-42.94-50.4-72.77-62.22c0,0-11.28-5.92-141.41-7.46,0,0-115-1.29-149.15,9.26s-47.31,27.25-47.31,27.25-9.51,7.72-20.05,44c0,0-16.46,48.09-16.2,67.11s7.26,22.5,7.26,22.5,28.16,21.6,108.57,39.73c0,0,37,10.41,65,16.2,0,0,27.58,5.33,39,3.15" transform="translate(-526.74 -23.87)"/><path class="cls-1" d="M1149.29,59.43c-.39,39.73-42,82.93-69.81,96.81s-130.37,99.9-130.37,99.9" transform="translate(-526.74 -23.87)"/><path class="cls-1" d="M960.69,246.51S868.11,169,826.07,144.67s-56.31-81.38-55.54-85.24" transform="translate(-526.74 -23.87)"/><path class="cls-1" d="M1216.2,212.46s-16.38,104.75-7.51,173.51,25.45,89.24,25.45,89.24l1.93,1.54V979.33" transform="translate(-526.74 -23.87)"/><path class="cls-1" d="M703.24,213.64s16.38,104.6,7.51,173.25S685.29,476,685.29,476l-1.93,1.54v501.8" transform="translate(-526.74 -23.87)"/><polyline class="cls-1" points="709.34 948.13 861.69 945.43 845.29 1028.16 729.39 1028.16 709.34 948.13"/><path class="cls-2" d="M924.4,447.18c0-9.7,5.79-15.84,16.13-15.84s16.18,6.14,16.18,15.83v23.14h-6V447.17c0-6.42-3.5-10.34-10.22-10.34s-10.17,3.92-10.17,10.35v23.13h-6Z" transform="translate(-526.74 -23.87)"/><path class="cls-2" d="M961.74,451.21c0-11.45,8.41-19.87,20.33-19.87s20.33,8.41,20.33,19.87-8.42,19.86-20.33,19.86S961.74,462.66,961.74,451.21Zm34.64,0c0-8.3-5.84-14.38-14.31-14.38s-14.32,6.08-14.32,14.38,5.85,14.37,14.32,14.37S996.38,459.5,996.38,451.21Z" transform="translate(-526.74 -23.87)"/><path class="cls-2" d="M928.47,499.69v.52h-11v-.52c3.15-.05,3.68-1.63,3.68-3.16v-14.2c0-7.89-5.68-8.42-7.89-8.42-2,0-7.89.53-7.89,8.42v14.2c0,1.58.53,3.16,3.68,3.16v.52H898v-.52c3.15,0,3.68-1.58,3.68-3.16V461.29c0-2.31-1.21-3-4.63-1.05l-.26-.53,8-4.73h.53v23.67c1.58-4.89,6.31-5.26,7.89-5.26,2.1,0,11.57.52,11.57,10.68v12.46C924.84,498.11,925.37,499.69,928.47,499.69Z" transform="translate(-526.74 -23.87)"/><path class="cls-2" d="M955.93,493.38c0,4.2-5.78,7.36-13.15,7.36s-13.15-6.42-13.15-13.68,5.89-13.67,13.15-13.67,8.58,3.47,10.52,4.73a2.92,2.92,0,0,0,3.42-.05l.79-.47.26.52-14.2,8.26c-.58.37-1.21.74-1.79,1.05a19.24,19.24,0,0,1,4.68-.52C952.25,486.91,955.93,489.69,955.93,493.38Zm-22.09-6.32a23.19,23.19,0,0,0,.68,5.95,4.22,4.22,0,0,1,1.11-2h0l.1-.11c1.74-1.84,4.79-3.31,7.21-4.73l3.36-1.95c2.26-1.42,2.84-2.26,2.84-4.52,0-3.68-3.68-5.79-6.31-5.79S933.84,475,933.84,487.06Zm18.41,6.32c0-3.16-1.58-5.95-5.79-5.95a13.44,13.44,0,0,0-7.52,1.74c-3.05,1.89-4.94,3.68-3.42,6.57a7.76,7.76,0,0,0,7.26,4.47C947.52,500.21,952.25,499.16,952.25,493.38Z" transform="translate(-526.74 -23.87)"/><path class="cls-2" d="M983.55,499.69v.52h-7.37v-3.63c-.94,2.53-3.21,4.16-7.36,4.16-4.74,0-9.47-2.1-9.47-7.89s5.26-8.42,12.1-8.42c4.21,0,5.78-2.63,5.78-5.26s-1.05-5.26-7.36-5.26S962,478.65,962,481.8h-.53v-8.41H962c0,1.05.26,1.58,1.42,1.58.84,0,2.79-1.58,6.47-1.58,8.42,0,11.57,3.05,11.57,5.78,0,3.16-3.15,5.79-10,5.79-6.37,0-7.89,3.31-7.89,7.89s1.31,7.36,5.26,7.36c4.73,0,7.36-2.63,7.36-6.83,0-2.42-1.21-3.05-4.63-1.06l-.26-.52,8.05-4.74h.52v9.47C979.86,498.11,980.39,499.69,983.55,499.69Z" transform="translate(-526.74 -23.87)"/><path class="cls-2" d="M1011.85,478.65l-12,7.1-.26-.53.95-.52c1.31-.9,3.2-2.42,3.15-5,0-3.68-2.05-5.79-4.73-5.79-2.11,0-5.74.53-5.79,8.42v14.2c.05,1.58.58,3.16,3.68,3.16v.52h-11v-.52c3.21,0,3.73-1.58,3.68-3.16V479.7c0-2.37-1.26-3-4.63-1.05l-.26-.53,8-4.73h.52V478c1.21-4.31,4.16-4.57,5.79-4.57a10.49,10.49,0,0,1,7.89,3.94c1.47,1.63,2.31,2.16,4.42,1l.31-.21Z" transform="translate(-526.74 -23.87)"/><path class="cls-2" d="M1029.47,497.43a7,7,0,0,1-5.9,3.31c-7.26,0-8.36-6.89-8.41-11.05V477.6c0-1.58-.53-3.16-3.68-3.16v-.53h6.68c-2.21-.63-2.95-1.89-3-4.73.05-2.42-1.26-3.05-4.63-1.05l-.26-.53,8-4.73h.53v3.42c0,7.62,2.68,7.62,8.1,7.62h.32v.53h-4.74c-3,0-3.68,1.58-3.68,3.16v12.09c-.05,7.95,3.26,10,5.79,10,1.42,0,3-.53,4.47-2.63Z" transform="translate(-526.74 -23.87)"/></svg>